<svg width="24" height="24" viewBox="0 0 24 24" fill="none" xmlns="http://www.w3.org/2000/svg">
<path fill-rule="evenodd" clip-rule="evenodd" d="M12.6359 18.364C12.2454 17.9734 12.2454 17.3403 12.6359 16.9497L16.5146 13.0711L5.41405 13.0711C4.86177 13.0711 4.41405 12.6234 4.41405 12.0711C4.41405 11.5188 4.86177 11.0711 5.41406 11.0711L16.6567 11.0711L12.6359 7.05025C12.2454 6.65973 12.2454 6.02656 12.6359 5.63604C13.0264 5.24551 13.6596 5.24551 14.0501 5.63604L19.7043 11.2902C19.7052 11.2911 19.7061 11.292 19.707 11.2929C20.0975 11.6834 20.0975 12.3166 19.707 12.7071L14.0501 18.364C13.6596 18.7545 13.0264 18.7545 12.6359 18.364Z" fill="#202638" fill-opacity="0.6"/>
</svg>
