<svg width="57" height="58" viewBox="0 0 57 58" fill="none" xmlns="http://www.w3.org/2000/svg">
<path d="M14.1421 43.1421C6.33165 35.3317 6.33165 22.6683 14.1421 14.8579C21.9526 7.04738 34.6159 7.04738 42.4264 14.8579C50.2369 22.6683 50.2369 35.3317 42.4264 43.1421L28.2843 57.2843L14.1421 43.1421Z" fill="white"/>
<path d="M14.8492 42.435C7.42928 35.0151 7.42928 22.9849 14.8492 15.565C22.2692 8.14501 34.2993 8.14501 41.7193 15.565C49.1393 22.9849 49.1393 35.0151 41.7193 42.435L28.2843 55.8701L14.8492 42.435Z" stroke="#171A23" stroke-opacity="0.8" stroke-width="2"/>
<g clip-path="url(#clip0_245_9698)">
<mask id="mask0_245_9698" style="mask-type:luminance" maskUnits="userSpaceOnUse" x="16" y="21" width="25" height="15">
<path d="M40.5001 21.0648H16.1001V35.9351H40.5001V21.0648Z" fill="white"/>
</mask>
<g mask="url(#mask0_245_9698)">
<path d="M20.2096 21.1749V27.8365H19.0993V22.1336H17.2104V27.8365H16.1001V21.1749H20.2096Z" fill="#171A23" fill-opacity="0.8"/>
<path d="M22.2145 27.5732C21.8819 27.2678 21.64 26.8765 21.5154 26.4424C21.3331 25.8332 21.2464 25.1995 21.2584 24.5637C21.2467 23.9102 21.3333 23.2587 21.5154 22.631C21.6377 22.1827 21.8793 21.7759 22.2145 21.454C22.5075 21.2026 22.8808 21.0645 23.2669 21.0645C23.653 21.0645 24.0263 21.2026 24.3193 21.454C24.6563 21.773 24.8975 22.1798 25.0158 22.6285C25.1982 23.257 25.2849 23.9094 25.2728 24.5637C25.2848 25.2003 25.1981 25.8349 25.0158 26.445C24.8945 26.8792 24.6541 27.2709 24.3219 27.5758C24.0231 27.8168 23.6508 27.9481 23.2669 27.9481C22.883 27.9481 22.5107 27.8168 22.2119 27.5758L22.2145 27.5732ZM22.4869 25.8873C22.5303 26.1778 22.6374 26.4551 22.8005 26.6994C22.8518 26.7763 22.9208 26.8398 23.0018 26.8845C23.0827 26.9292 23.1732 26.9539 23.2656 26.9564C23.5406 26.9564 23.7565 26.756 23.9159 26.355C24.1002 25.774 24.1803 25.1649 24.1523 24.556C24.1594 24.0928 24.1232 23.6299 24.0444 23.1733C24.0029 22.8731 23.8968 22.5855 23.7334 22.3303C23.6875 22.2467 23.62 22.177 23.538 22.1284C23.4559 22.0798 23.3623 22.0542 23.2669 22.0542C23.1715 22.0542 23.0779 22.0798 22.9959 22.1284C22.9138 22.177 22.8463 22.2467 22.8005 22.3303C22.639 22.5858 22.5322 22.872 22.4869 23.1708C22.4071 23.6263 22.3701 24.0884 22.3764 24.5509C22.3694 24.9989 22.4064 25.4465 22.4869 25.8873Z" fill="#171A23" fill-opacity="0.8"/>
<path d="M28.9397 21.1749V23.7296H28.3512C28.1378 23.7413 27.9248 23.7025 27.7292 23.6165C27.5749 23.5346 27.4567 23.398 27.3977 23.2335C27.3192 23.0047 27.2834 22.7634 27.2923 22.5216V21.1749H26.182V22.5165C26.1498 23.0952 26.3227 23.6667 26.6704 24.1305C26.8529 24.3333 27.0792 24.4919 27.3321 24.5943C27.585 24.6967 27.8579 24.7402 28.1301 24.7216H28.9397V27.8365H30.05V21.1749H28.9397Z" fill="#171A23" fill-opacity="0.8"/>
<path d="M34.9194 22.1336H33.6164V27.8365H32.5061V22.1336H31.2031V21.1749H34.9194V22.1336Z" fill="#171A23" fill-opacity="0.8"/>
<path d="M37.1564 21.1738H38.0456C38.412 21.154 38.7762 21.2435 39.0916 21.4308C39.367 21.6149 39.581 21.8771 39.706 22.1839C39.8588 22.5644 39.9548 22.9653 39.9912 23.3738L40.5052 27.8225H39.395L39.0352 24.7154H37.1512V27.8354H36.041V21.1738H37.1564ZM37.1564 23.7696H38.9298L38.8836 23.3866C38.863 23.1406 38.812 22.898 38.7318 22.6645C38.6756 22.5073 38.5654 22.3753 38.4208 22.2918C38.2344 22.2024 38.0284 22.1618 37.822 22.1736H37.1564V23.7696Z" fill="#171A23" fill-opacity="0.8"/>
<path d="M17.3234 29.1628C17.6936 29.153 18.059 29.2484 18.3772 29.4378C18.6891 29.6364 18.9323 29.9262 19.0736 30.2679C19.2542 30.7033 19.3417 31.1717 19.3306 31.6429C19.3421 32.0886 19.2625 32.532 19.0968 32.9459C18.974 33.2639 18.7755 33.547 18.5185 33.7709C18.3447 33.9346 18.1194 34.0328 17.8811 34.0485C17.7577 34.0571 17.6339 34.0386 17.5185 33.9942C17.403 33.9498 17.2987 33.8806 17.2129 33.7915V35.8244H16.1001V29.1628H17.3234ZM17.2746 32.6118C17.302 32.7309 17.3585 32.8412 17.4391 32.9331C17.4653 32.9654 17.4982 32.9917 17.5354 33.0103C17.5726 33.0289 17.6134 33.0394 17.655 33.041C17.7525 33.0356 17.8444 32.9933 17.912 32.9228C18.0158 32.8149 18.0901 32.6821 18.1279 32.5373C18.1903 32.3158 18.2189 32.0862 18.2127 31.8562C18.2127 31.2343 18.1381 30.7948 17.9839 30.5378C17.9208 30.419 17.8258 30.3202 17.7095 30.2526C17.5933 30.1849 17.4605 30.1511 17.326 30.1548H17.2129V32.0978C17.2095 32.2712 17.2303 32.4442 17.2746 32.6118Z" fill="#171A23" fill-opacity="0.8"/>
<path d="M20.5563 35.5579C20.2222 35.2526 19.9801 34.86 19.8572 34.4245C19.6748 33.8153 19.5881 33.1815 19.6002 32.5458C19.5885 31.8931 19.6751 31.2425 19.8572 30.6157C19.9785 30.1676 20.2203 29.7614 20.5563 29.4411C20.8493 29.1898 21.2227 29.0516 21.6087 29.0516C21.9948 29.0516 22.3681 29.1898 22.6612 29.4411C22.9966 29.7603 23.2376 30.1658 23.3576 30.6131C23.5398 31.2416 23.6265 31.894 23.6146 32.5483C23.6311 33.1843 23.5488 33.8189 23.3705 34.4296C23.2498 34.8641 23.0093 35.256 22.6766 35.5604C22.3786 35.8032 22.0059 35.9357 21.6216 35.9357C21.2372 35.9357 20.8646 35.8032 20.5666 35.5604L20.5563 35.5579ZM20.8313 33.8745C20.8764 34.1578 20.9825 34.4278 21.1423 34.6661C21.1931 34.7423 21.2613 34.8053 21.3413 34.85C21.4213 34.8947 21.5107 34.9197 21.6023 34.9231C21.8764 34.9231 22.0923 34.7226 22.25 34.3217C22.4369 33.7412 22.5178 33.1318 22.489 32.5226C22.496 32.0594 22.4598 31.5965 22.381 31.1399C22.3384 30.8417 22.2323 30.556 22.07 30.3021C22.0242 30.2185 21.9567 30.1487 21.8746 30.1001C21.7926 30.0516 21.699 30.0259 21.6036 30.0259C21.5082 30.0259 21.4146 30.0516 21.3325 30.1001C21.2505 30.1487 21.183 30.2185 21.1371 30.3021C20.9754 30.5651 20.8711 30.8594 20.8313 31.1656C20.7517 31.6213 20.7147 32.0833 20.7208 32.5458C20.7143 32.9912 20.7513 33.4362 20.8313 33.8745Z" fill="#171A23" fill-opacity="0.8"/>
<path d="M24.3735 30.6671C24.6445 30.1651 25.0711 29.7647 25.5891 29.526C26.1956 29.2626 26.8533 29.138 27.5141 29.161V30.1608C26.7225 30.1608 26.1186 30.3587 25.6996 30.7596C25.2807 31.1605 25.07 31.7542 25.07 32.5586C25.07 33.3631 25.2782 33.8951 25.6971 34.2703C26.116 34.6455 26.7251 34.8357 27.5141 34.8357V35.8226C26.3781 35.8226 25.5017 35.5485 24.8849 35.0002C24.2681 34.4519 23.9597 33.6338 23.9597 32.5458C23.9353 31.8945 24.0777 31.2478 24.3735 30.6671Z" fill="#171A23" fill-opacity="0.8"/>
<path d="M28.1102 30.6689C28.3813 30.1662 28.809 29.7656 29.3284 29.5278C29.9308 29.2621 30.5849 29.1339 31.243 29.1525V30.1523C30.454 30.1523 29.8501 30.3502 29.4286 30.7511C29.0071 31.152 28.7989 31.756 28.7989 32.5476C28.7989 33.3391 29.0071 33.884 29.426 34.2592C29.8449 34.6345 30.454 34.8246 31.2405 34.8246V35.8244C30.1045 35.8244 29.2281 35.5502 28.6113 35.002C27.9945 34.4537 27.6861 33.6356 27.6861 32.5476C27.6649 31.8954 27.8108 31.2487 28.1102 30.6689Z" fill="#171A23" fill-opacity="0.8"/>
<path d="M32.8746 29.1625V31.5398L34.761 29.9489L35.8712 29.0134V35.824H34.761V31.2905L32.8746 32.8813V35.824H31.7617V29.1625H32.8746Z" fill="#171A23" fill-opacity="0.8"/>
<path d="M37.504 29.1611V31.5384L39.3904 29.9476L40.4954 29.0172V35.8227H39.3852V31.2891L37.4988 32.88V35.8227H36.3936V29.1611H37.504Z" fill="#171A23" fill-opacity="0.8"/>
</g>
</g>
<defs>
<clipPath id="clip0_245_9698">
<rect width="24.6" height="15" fill="white" transform="translate(16 21)"/>
</clipPath>
</defs>
</svg>
