<svg width="16" height="16" viewBox="0 0 16 16" fill="none" xmlns="http://www.w3.org/2000/svg">
<path fill-rule="evenodd" clip-rule="evenodd" d="M10.6488 8.66493C10.6515 8.66225 10.6542 8.65955 10.6569 8.65683C10.7157 8.59806 10.7656 8.5338 10.8067 8.4657C11.0388 8.08122 10.9889 7.57421 10.6571 7.24238C10.6516 7.23692 10.6461 7.23154 10.6406 7.22623L7.12141 3.70708C6.73089 3.31655 6.09772 3.31655 5.7072 3.70708C5.31668 4.0976 5.31668 4.73077 5.7072 5.12129L8.53558 7.94967L5.70734 10.7779C5.31681 11.1684 5.31681 11.8016 5.70734 12.1921C6.09786 12.5827 6.73103 12.5827 7.12155 12.1921L10.6488 8.66493Z" fill="#4E8616"/>
</svg>
