<svg width="16" height="16" viewBox="0 0 16 16" fill="none" xmlns="http://www.w3.org/2000/svg">
<path fill-rule="evenodd" clip-rule="evenodd" d="M7.2343 11.2345C7.23697 11.2372 7.23967 11.2399 7.24238 11.2426C7.30115 11.3014 7.3654 11.3513 7.4335 11.3924C7.81799 11.6245 8.325 11.5746 8.65683 11.2428C8.66228 11.2373 8.66766 11.2318 8.67297 11.2263L12.1921 7.70711C12.5827 7.31658 12.5827 6.68342 12.1921 6.29289C11.8016 5.90237 11.1684 5.90237 10.7779 6.29289L7.94953 9.12127L5.12129 6.29303C4.73077 5.90251 4.0976 5.90251 3.70708 6.29303C3.31655 6.68356 3.31655 7.31672 3.70708 7.70725L7.2343 11.2345Z" fill="#272E49" fill-opacity="0.4"/>
</svg>
