<svg width="16" height="16" viewBox="0 0 16 16" fill="none" xmlns="http://www.w3.org/2000/svg">
<path fill-rule="evenodd" clip-rule="evenodd" d="M10.6487 8.66493C10.6514 8.66225 10.6542 8.65955 10.6569 8.65683C10.7157 8.59806 10.7656 8.5338 10.8067 8.4657C11.0387 8.08122 10.9889 7.57421 10.657 7.24238C10.6516 7.23692 10.6461 7.23154 10.6405 7.22623L7.12135 3.70708C6.73083 3.31655 6.09766 3.31655 5.70714 3.70708C5.31661 4.0976 5.31661 4.73077 5.70714 5.12129L8.53552 7.94967L5.70728 10.7779C5.31675 11.1684 5.31675 11.8016 5.70728 12.1921C6.0978 12.5827 6.73097 12.5827 7.12149 12.1921L10.6487 8.66493Z" fill="white"/>
</svg>
