<svg width="24" height="24" viewBox="0 0 24 24" fill="none" xmlns="http://www.w3.org/2000/svg">
<path fill-rule="evenodd" clip-rule="evenodd" d="M11.7782 5.70708C12.1687 6.09761 12.1687 6.73077 11.7782 7.1213L7.89949 11L19 11C19.5523 11 20 11.4477 20 12C20 12.5523 19.5523 13 19 13L7.75736 13L11.7782 17.0208C12.1687 17.4113 12.1687 18.0445 11.7782 18.435C11.3877 18.8255 10.7545 18.8255 10.364 18.435L4.70978 12.7808C4.70889 12.7799 4.70799 12.779 4.7071 12.7782C4.31657 12.3876 4.31657 11.7545 4.7071 11.3639L10.364 5.70708C10.7545 5.31656 11.3876 5.31656 11.7782 5.70708Z" fill="#202638" fill-opacity="0.6"/>
</svg>
