<svg width="16" height="16" viewBox="0 0 16 16" fill="none" xmlns="http://www.w3.org/2000/svg">
<path fill-rule="evenodd" clip-rule="evenodd" d="M8 0C5.23857 0 3 2.23858 3 5V6H1.17272C0.557404 6 0.0880615 6.55041 0.185275 7.15799L1.19583 13.474C1.42869 14.9293 2.68427 16 4.15816 16H11.8418C13.3157 16 14.5713 14.9293 14.8042 13.474L15.8147 7.15799C15.9119 6.55041 15.4426 6 14.8273 6H13V5C13 2.23858 10.7614 0 8 0ZM11 6V5C11 3.34315 9.65685 2 8 2C6.34314 2 5 3.34315 5 5V6H11Z" fill="white"/>
</svg>
