<svg width="24" height="24" viewBox="0 0 24 24" fill="none" xmlns="http://www.w3.org/2000/svg">
<path fill-rule="evenodd" clip-rule="evenodd" d="M7.00003 7C7.00003 4.23858 9.23861 2 12 2C14.7615 2 17 4.23858 17 7L17.4313 7C19.559 7 20.6228 7 21.2204 7.68255C21.818 8.3651 21.6774 9.41962 21.3962 11.5287L20.9257 15.0573C20.4847 18.3652 20.2642 20.0191 19.1329 21.0095C18.0016 22 16.333 22 12.9959 22H11.0042C7.66705 22 5.99849 22 4.8672 21.0095C3.73591 20.0191 3.51538 18.3652 3.07434 15.0573L2.60385 11.5287C2.32265 9.41962 2.18204 8.3651 2.77963 7.68255C3.37721 7 4.44106 7 6.56876 7L7.00003 7ZM15 7C15 5.34315 13.6569 4 12 4C10.3432 4 9.00003 5.34315 9.00003 7L15 7ZM9.00003 11C9.55231 11 10 11.4477 10 12V14C10 14.5523 9.55231 15 9.00003 15C8.44775 15 8.00003 14.5523 8.00003 14V12C8.00003 11.4477 8.44775 11 9.00003 11ZM15 11C15.5523 11 16 11.4477 16 12V14C16 14.5523 15.5523 15 15 15C14.4477 15 14 14.5523 14 14V12C14 11.4477 14.4477 11 15 11Z" fill="#272E49" fill-opacity="0.4"/>
</svg>
