<svg width="263" height="32" viewBox="0 0 263 32" fill="none" xmlns="http://www.w3.org/2000/svg">
<path d="M9.97885 0V3.28254C6.27636 3.29894 3.2809 6.30588 3.2809 10.0117V14.4983C4.67036 13.4468 6.40103 12.8217 8.27771 12.8217V16.1026C5.61854 16.1026 3.2809 18.1729 3.2809 20.791V31.2834H0V9.97885C0 4.46858 4.46858 0 9.97885 0ZM56.8186 19.1801C56.9482 26.2193 51.2165 31.951 44.1789 31.8198C37.545 31.6968 32.1331 26.2833 32.0101 19.6509C31.8805 12.6118 37.6122 6.88004 44.6514 7.00964C51.2854 7.13267 56.6972 12.5462 56.8202 19.1785M53.5721 19.7149C53.7411 14.4179 49.412 10.0888 44.115 10.2577C39.3183 10.4103 35.4107 14.3178 35.2565 19.1145C35.0876 24.4115 39.4167 28.7407 44.7137 28.5717C49.5104 28.4191 53.4179 24.5116 53.5721 19.7133M24.6067 21.8721V12.41C25.8682 12.638 27.5054 12.7266 29.1081 12.2017C32.4038 11.1222 34.2952 7.86431 34.2952 7.86431C34.2952 7.86431 30.8437 6.35346 27.5464 7.43287C26.385 7.81346 25.3974 8.46472 24.6067 9.14878V0.114831H21.3258V21.9049C21.3258 27.4168 25.7928 31.8838 31.3047 31.8838V28.6012C27.6022 28.5848 24.6067 25.5779 24.6067 21.8721ZM13.3975 31.2834H16.6784V16.0813H13.3975V31.2834ZM15.8566 8.98638C13.7535 7.92173 11.0665 8.99786 11.0665 8.99786C11.0665 8.99786 11.7866 11.803 13.8897 12.8677C15.9927 13.934 18.6798 12.8562 18.6798 12.8562C18.6798 12.8562 17.9596 10.051 15.8566 8.98638Z" fill="#4E8616"/>
<path d="M257.319 4.9375C260.059 4.9375 262.21 7.09979 262.21 9.8463C262.21 12.5928 260.059 14.8122 257.286 14.8122C254.514 14.8122 252.336 12.6566 252.336 9.8463C252.336 7.036 254.517 4.9375 257.286 4.9375H257.319ZM257.26 5.79704C255.072 5.79704 253.402 7.62357 253.402 9.84966C253.402 12.0757 255.072 13.9224 257.319 13.9224C259.504 13.9526 261.125 12.1261 261.125 9.87652C261.125 7.62693 259.501 5.8004 257.286 5.8004H257.257L257.26 5.79704ZM256.405 12.5592H255.468V7.40533C255.986 7.3046 256.534 7.24752 257.227 7.24752C258.088 7.24752 258.511 7.40533 258.847 7.64708C259.151 7.87204 259.365 8.26823 259.365 8.73494C259.365 9.38295 258.894 9.78586 258.359 9.97389V10.0276C258.811 10.2089 259.049 10.6118 259.21 11.2666C259.369 12.069 259.448 12.3712 259.577 12.5592H258.61C258.451 12.3712 258.323 11.9045 258.2 11.1961C258.092 10.642 257.755 10.3936 257.026 10.3936H256.408V12.5559L256.405 12.5592ZM256.405 9.65827H257.052C257.752 9.65827 258.356 9.44003 258.356 8.81888C258.356 8.32195 258.059 8.00298 257.138 8.00298C256.778 8.00298 256.563 8.01641 256.405 8.04663V9.65827Z" fill="#4E8616"/>
<path d="M86.9634 28.1647C85.0306 30.6058 81.6648 31.8804 78.3073 31.8804C71.2341 31.8804 66.1854 27.1983 66.1854 19.9668C66.1854 13.2935 71.0758 8.05322 77.5908 8.05322C81.1566 8.05322 84.3141 8.81969 86.5052 10.9025L85.2305 13.0436C83.1977 11.2107 80.6484 10.5526 77.9991 10.5526C73.1586 10.5526 68.9847 14.5266 68.9847 19.9752C68.9847 25.782 73.1586 29.3977 78.5073 29.3977C81.4648 29.3977 84.0558 28.0731 85.6388 26.2402L86.9634 28.1731V28.1647Z" fill="#4E8616"/>
<path d="M103.091 8.05322C110.223 8.05322 115.105 13.0936 115.105 19.9668C115.105 26.8401 110.215 31.8804 103.091 31.8804C95.9682 31.8804 91.0778 26.8401 91.0778 19.9668C91.0778 13.0936 95.9682 8.05322 103.091 8.05322ZM103.091 29.3811C108.49 29.3811 112.306 25.5154 112.306 19.9585C112.306 14.4016 108.49 10.5443 103.091 10.5443C97.6928 10.5443 93.8771 14.4099 93.8771 19.9585C93.8771 25.5071 97.7428 29.3811 103.091 29.3811Z" fill="#4E8616"/>
<path d="M119.819 14.11C119.819 10.4443 122.818 8.05322 127.201 8.05322C130.408 8.05322 133.058 9.2196 134.382 10.6026L133.266 12.5854C131.841 11.2607 129.6 10.3943 127.259 10.3943C124.41 10.3943 122.627 12.0772 122.627 14.06C122.627 20.1168 135.307 17.2675 135.307 25.3155C135.307 29.8476 131.441 31.8804 127.059 31.8804C123.852 31.8804 120.286 30.1975 119.219 28.573L120.694 26.8401C121.969 28.4647 125.076 29.5394 127.367 29.5394C130.017 29.5394 132.508 28.2147 132.508 25.4154C132.508 19.6586 119.828 22.5162 119.828 14.11" fill="#4E8616"/>
<path d="M172.83 31.3806H170.18V17.0759C170.18 12.5937 168.197 10.5609 164.373 10.5609C161.166 10.5609 158.675 12.1938 157.35 14.3766C157.45 14.7848 157.45 15.5013 157.45 16.0012V31.3806H154.801V15.9012C154.801 12.7437 152.768 10.5526 149.044 10.5526C145.886 10.5526 143.337 12.3355 142.071 14.1683V31.3722H139.421V8.46146H142.071V11.669C143.804 9.52785 146.911 8.05322 150.01 8.05322C153.576 8.05322 156.225 9.62782 157.034 12.2771C158.716 9.7278 161.974 8.05322 165.381 8.05322C169.655 8.05322 172.813 10.086 172.813 16.3511V31.3722L172.83 31.3806Z" fill="#4E8616"/>
<path d="M197.564 28.6229C195.473 30.814 192.165 31.8804 189.108 31.8804C181.876 31.8804 176.944 27.1983 176.944 19.9668C176.944 13.2935 181.018 8.05322 188.549 8.05322C194.456 8.05322 198.938 12.1272 198.938 18.3922C198.938 19.2587 198.888 19.9168 198.788 20.5333H179.902C180.101 26.0319 183.767 29.3894 189.266 29.3894C192.373 29.3894 195.123 28.2147 196.697 26.5901L197.564 28.6229ZM179.743 18.3423H196.239C196.139 13.5102 193.081 10.5526 188.299 10.5526C183.209 10.5526 180.201 13.8601 179.743 18.3423Z" fill="#4E8616"/>
<path d="M203.053 2.42434H205.702V8.78937H214.916V11.2804H205.702V22.5858C205.702 27.068 207.177 29.5091 210.842 29.5091C212.367 29.5091 213.692 28.9009 214.508 28.2844L215.375 30.3755C214.308 31.2419 212.425 32.0001 210.234 32.0001C205.144 32.0001 203.053 28.8426 203.053 22.9857V2.41602V2.42434Z" fill="#4E8616"/>
<path d="M222.372 0C223.238 0 224.105 0.658168 224.105 1.6829C224.105 2.84927 223.238 3.56575 222.372 3.56575C221.355 3.56575 220.489 2.84927 220.489 1.6829C220.489 0.666499 221.355 0 222.372 0ZM220.947 8.93104H223.596V31.8418H220.947V8.93104Z" fill="#4E8616"/>
<path d="M249.989 28.1647C248.056 30.6058 244.69 31.8804 241.333 31.8804C234.26 31.8804 229.219 27.1983 229.219 19.9668C229.219 13.2935 234.11 8.05322 240.625 8.05322C244.19 8.05322 247.348 8.81969 249.531 10.9025L248.256 13.0436C246.223 11.2107 243.674 10.5526 241.024 10.5526C236.184 10.5526 232.01 14.5266 232.01 19.9752C232.01 25.782 236.184 29.3977 241.533 29.3977C244.482 29.3977 247.081 28.0731 248.664 26.2402L249.989 28.1731V28.1647Z" fill="#4E8616"/>
</svg>
