<svg width="24" height="24" viewBox="0 0 24 24" fill="none" xmlns="http://www.w3.org/2000/svg">
<path fill-rule="evenodd" clip-rule="evenodd" d="M10.94 21.4083L3.94 17.0333C3.48048 16.7461 3.25072 16.6024 3.12536 16.3763C3 16.1501 3 15.8792 3 15.3373V8.55425C3 8.01235 3 7.74141 3.12536 7.51523C3.25072 7.28906 3.48048 7.14545 3.94 6.85825L6.71972 5.12092L15.0433 10.5067C15.2823 10.6614 15.4033 10.7409 15.4847 10.8052L15.4887 10.8084L15.4892 10.8135C15.499 10.9168 15.5 11.0616 15.5 11.3463V14.7583C15.5 15.3105 15.9477 15.7583 16.5 15.7583C17.0523 15.7583 17.5 15.3105 17.5 14.7583V11.3463L17.5 11.3128V11.3127C17.5 11.0758 17.5001 10.8344 17.4804 10.6256C17.4578 10.3859 17.4045 10.118 17.2568 9.84651C17.1091 9.57501 16.9131 9.38478 16.7242 9.23561C16.5595 9.10559 16.3569 8.9745 16.1579 8.84582L16.1298 8.8276L8.59241 3.95049L10.94 2.48325L10.94 2.48325C11.4555 2.16108 11.7132 2 12 2C12.2868 2 12.5445 2.16108 13.06 2.48325L20.06 6.85825C20.5195 7.14545 20.7493 7.28906 20.8746 7.51523C21 7.74141 21 8.01235 21 8.55425V15.3373C21 15.8792 21 16.1501 20.8746 16.3763C20.7493 16.6024 20.5195 16.7461 20.06 17.0333L16.5 19.2583L13.06 21.4083L13.06 21.4083C12.5445 21.7304 12.2868 21.8915 12 21.8915C11.7132 21.8915 11.4555 21.7304 10.94 21.4083L10.94 21.4083Z" fill="#272E49" fill-opacity="0.4"/>
</svg>
