<svg width="25" height="24" viewBox="0 0 25 24" fill="none" xmlns="http://www.w3.org/2000/svg">
<path fill-rule="evenodd" clip-rule="evenodd" d="M11.7145 11.5355C13.4261 13.2472 16.0701 13.4584 18.0118 12.1692C18.0326 12.1945 18.0548 12.219 18.0784 12.2426L21.614 15.7782C22.0045 16.1687 22.6376 16.1687 23.0282 15.7782C23.4187 15.3876 23.4187 14.7545 23.0282 14.364L19.4926 10.8284C19.469 10.8048 19.4445 10.7826 19.4192 10.7618C20.7084 8.82008 20.4972 6.17614 18.7855 4.46447C16.8329 2.51184 13.6671 2.51184 11.7145 4.46447C9.76184 6.41709 9.76184 9.58291 11.7145 11.5355ZM3.25 6.99999C2.69772 6.99999 2.25 7.44771 2.25 7.99999C2.25 8.55228 2.69772 8.99999 3.25 8.99999H7.25C7.80228 8.99999 8.25 8.55228 8.25 7.99999C8.25 7.44771 7.80228 6.99999 7.25 6.99999H3.25ZM3.25 13C2.69772 13 2.25 13.4477 2.25 14C2.25 14.5523 2.69772 15 3.25 15H10.25C10.8023 15 11.25 14.5523 11.25 14C11.25 13.4477 10.8023 13 10.25 13H3.25ZM2.25 20C2.25 19.4477 2.69772 19 3.25 19H21.25C21.8023 19 22.25 19.4477 22.25 20C22.25 20.5523 21.8023 21 21.25 21H3.25C2.69772 21 2.25 20.5523 2.25 20Z" fill="#202638" fill-opacity="0.6"/>
</svg>
