<svg width="24" height="24" viewBox="0 0 24 24" fill="none" xmlns="http://www.w3.org/2000/svg">
<path fill-rule="evenodd" clip-rule="evenodd" d="M14.2555 4.12133L4.89734 13.4795C4.52817 13.8487 4.26174 14.3078 4.12437 14.8115L3.2487 18.0223C2.79062 19.7019 4.33181 21.2431 6.01143 20.785L9.22223 19.9093C9.72591 19.7719 10.185 19.5055 10.5542 19.1363L19.9124 9.77818C21.0839 8.60661 21.0839 6.70711 19.9124 5.53554L18.4981 4.12133C17.3266 2.94976 15.4271 2.94975 14.2555 4.12133ZM6.0539 15.3377L5.67392 16.7309L5.63466 16.8749L5.28985 18.1392L5.17823 18.5485C5.12733 18.7351 5.29857 18.9064 5.4852 18.8555L5.89449 18.7438L7.1588 18.399L7.30274 18.3598L8.69599 17.9798C8.86389 17.934 9.01693 17.8452 9.13998 17.7221L16.3768 10.4853L13.5484 7.65686L6.31155 14.8937C6.1885 15.0168 6.09969 15.1698 6.0539 15.3377Z" fill="#272E49" fill-opacity="0.4"/>
</svg>
