<svg width="40" height="40" viewBox="0 0 40 40" fill="none" xmlns="http://www.w3.org/2000/svg">
<g clip-path="url(#clip0_2250_1125)">
<path d="M24.7979 17.5576C24.1705 18.1922 23.4234 18.696 22.5998 19.0399C21.7763 19.3837 20.8928 19.5607 20.0003 19.5607C19.1079 19.5607 18.2244 19.3837 17.4009 19.0399C16.5773 18.696 15.8302 18.1922 15.2028 17.5576C14.2568 16.6027 13.6135 15.39 13.3531 14.0713C13.0928 12.7527 13.227 11.3865 13.739 10.1437C14.2509 8.90086 15.118 7.83658 16.2316 7.08394C17.3453 6.33129 18.6561 5.92369 20.0002 5.91211C21.3468 5.9213 22.6607 6.32806 23.777 7.08133C24.8933 7.83459 25.7622 8.9008 26.2747 10.1461C26.7872 11.3915 26.9204 12.7604 26.6576 14.0812C26.3948 15.402 25.7478 16.6157 24.7977 17.57L24.7979 17.5576ZM19.9878 9.63349C19.1695 9.63735 18.386 9.96513 17.8088 10.5451C17.2315 11.1251 16.9074 11.9101 16.9074 12.7284C16.9074 13.5467 17.2315 14.3317 17.8088 14.9117C18.386 15.4917 19.1695 15.8195 19.9878 15.8234C20.8061 15.8195 21.5896 15.4917 22.1668 14.9117C22.7441 14.3317 23.0682 13.5467 23.0682 12.7284C23.0682 11.9101 22.7441 11.1251 22.1668 10.5451C21.5896 9.96513 20.8061 9.63735 19.9878 9.63349ZM27.1271 19.5831L29.1144 22.3174C29.2157 22.4566 29.1904 22.6465 29.0638 22.7477C27.4177 24.0899 25.4867 25.0381 23.4182 25.5199L27.2536 32.9626C27.28 33.0109 27.2934 33.0652 27.2924 33.1202C27.2915 33.1752 27.2761 33.229 27.248 33.2763C27.2199 33.3235 27.18 33.3627 27.1321 33.3898C27.0843 33.4169 27.0302 33.4311 26.9752 33.431H22.8612C22.7347 33.431 22.6207 33.355 22.5701 33.2411L20.0004 27.1019L17.4182 33.2411C17.3935 33.2977 17.3527 33.3458 17.301 33.3796C17.2493 33.4133 17.1888 33.4312 17.127 33.431H13.0131C12.7726 33.431 12.6333 33.1778 12.7346 32.9626L16.5827 25.5199C14.5574 25.0389 12.608 24.1275 10.9371 22.7477C10.8735 22.6977 10.8315 22.6252 10.8198 22.5451C10.808 22.4651 10.8273 22.3836 10.8738 22.3174L12.8738 19.5958C12.9 19.5604 12.933 19.5305 12.9709 19.508C13.0088 19.4856 13.0509 19.471 13.0946 19.4651C13.1383 19.4592 13.1827 19.4621 13.2252 19.4737C13.2677 19.4853 13.3075 19.5053 13.3422 19.5325C15.1718 21.187 17.5343 22.1302 20.0004 22.1907C22.4687 22.1907 24.7725 21.1527 26.6586 19.5325C26.7851 19.406 27.013 19.4313 27.1269 19.5832L27.1271 19.5831Z" fill="#4E8616"/>
</g>
<defs>
<clipPath id="clip0_2250_1125">
<rect width="40" height="40" fill="white"/>
</clipPath>
</defs>
</svg>
