<svg width="12" height="12" viewBox="0 0 12 12" fill="none" xmlns="http://www.w3.org/2000/svg">
<path fill-rule="evenodd" clip-rule="evenodd" d="M1.05022 9.5355C0.659698 9.92602 0.659697 10.5592 1.05022 10.9497C1.44075 11.3402 2.07391 11.3402 2.46444 10.9497L5.99997 7.41418L9.5355 10.9497C9.92602 11.3402 10.5592 11.3402 10.9497 10.9497C11.3402 10.5592 11.3402 9.92602 10.9497 9.5355L7.41418 5.99997L10.9497 2.46443C11.3402 2.07391 11.3402 1.44074 10.9497 1.05022C10.5592 0.659693 9.92603 0.659693 9.5355 1.05022L5.99997 4.58575L2.46443 1.05022C2.07391 0.659695 1.44074 0.659695 1.05022 1.05022C0.659693 1.44074 0.659693 2.07391 1.05022 2.46443L4.58575 5.99997L1.05022 9.5355Z" fill="#272E49" fill-opacity="0.4"/>
</svg>
