<svg width="16" height="16" viewBox="0 0 16 16" fill="none" xmlns="http://www.w3.org/2000/svg">
<path fill-rule="evenodd" clip-rule="evenodd" d="M6.22223 3C5.66994 3 5.22223 3.44772 5.22223 4C5.22223 4.55228 5.66994 5 6.22223 5C6.77451 5 7.22223 4.55228 7.22223 4C7.22223 3.44772 6.77451 3 6.22223 3ZM2 3L3.39293 3C3.80477 1.83481 4.91601 1 6.22223 1C7.52845 1 8.63969 1.83481 9.05152 3L14.4445 3C14.9967 3 15.4445 3.44771 15.4445 4C15.4445 4.55228 14.9967 5 14.4445 5L9.05152 5C8.63969 6.16519 7.52845 7 6.22223 7C4.91601 7 3.80477 6.16519 3.39293 5L2 5C1.44772 5 1 4.55228 1 4C1 3.44772 1.44772 3 2 3ZM11.989 12.9999C11.9927 13 11.9963 13 12 13H14C14.5523 13 15 12.5523 15 12C15 11.4477 14.5523 11 14 11H12.0434C11.6541 9.79476 10.5229 8.923 9.18811 8.923C7.8533 8.923 6.72209 9.79476 6.33278 11L2 11C1.44772 11 1 11.4477 1 12C1 12.5523 1.44772 13 2 13L6.38723 13C6.82001 14.1248 7.91085 14.923 9.18811 14.923C10.4654 14.923 11.5562 14.1248 11.989 12.9999ZM8.18811 11.923C8.18811 11.3707 8.63583 10.923 9.18811 10.923C9.74039 10.923 10.1881 11.3707 10.1881 11.923C10.1881 12.4753 9.74039 12.923 9.18811 12.923C8.63583 12.923 8.18811 12.4753 8.18811 11.923Z" fill="#4E8616"/>
</svg>
