<svg width="24" height="24" viewBox="0 0 24 24" fill="none" xmlns="http://www.w3.org/2000/svg">
<path d="M7.72849 3.01331C9.35006 3.12488 10.9657 3.93552 12 5.27138C13.0343 3.93552 14.6499 3.12488 16.2715 3.01331C18.4037 2.8666 20.5898 3.92612 21.5682 6.54083C23.0419 10.4795 20.4741 14.1063 17.9264 16.5549C16.6182 17.8123 15.2334 18.8412 14.1804 19.5538C13.6526 19.911 13.2051 20.1908 12.8881 20.3821C12.7295 20.4778 12.6034 20.5515 12.516 20.6018C12.4722 20.6269 12.4382 20.6462 12.4145 20.6595L12.387 20.6749L12.3793 20.6792L12.3757 20.6812C12.2587 20.7456 12.1294 20.7778 12 20.7778C11.8706 20.7778 11.7412 20.7456 11.6243 20.6812L12 20.7778L11.623 20.6805L11.6207 20.6792L11.613 20.6749L11.5855 20.6595C11.5618 20.6462 11.5278 20.6269 11.484 20.6018C11.3966 20.5515 11.2705 20.4778 11.1119 20.3821C10.7949 20.1908 10.3474 19.911 9.81964 19.5538C8.76663 18.8412 7.38175 17.8123 6.07361 16.5549C3.52594 14.1063 0.958102 10.4795 2.43183 6.54083C3.41019 3.92612 5.59628 2.8666 7.72849 3.01331Z" fill="#272E49" fill-opacity="0.4"/>
</svg>
