<svg width="24" height="24" viewBox="0 0 24 24" fill="none" xmlns="http://www.w3.org/2000/svg">
<path fill-rule="evenodd" clip-rule="evenodd" d="M3.35288 9.12664C3 9.83311 3 10.6368 3 12.2443V17.2644C3 19.4968 3 20.613 3.75315 21.3065C4.50631 22 5.71849 22 8.14286 22C9.16853 22 10 21.1685 10 20.1429V18C10 16.8954 10.8954 16 12 16C13.1046 16 14 16.8954 14 18V20.1429C14 21.1685 14.8315 22 15.8571 22C18.2815 22 19.4937 22 20.2468 21.3065C21 20.613 21 19.4968 21 17.2644V12.2443C21 10.6368 21 9.83311 20.6471 9.12664C20.2942 8.42017 19.6315 7.89711 18.3061 6.85101L17.0204 5.83624C14.6247 3.94541 13.4268 3 12 3C10.5732 3 9.3753 3.94541 6.97961 5.83624L5.6939 6.85101C4.36847 7.89711 3.70576 8.42017 3.35288 9.12664Z" fill="#272E49" fill-opacity="0.4"/>
</svg>
