<svg width="16" height="16" viewBox="0 0 16 16" fill="none" xmlns="http://www.w3.org/2000/svg">
<path d="M12.9667 3.75999L9.98921 12.6128C9.95464 12.7249 9.8852 12.8229 9.79105 12.8926C9.6969 12.9622 9.58299 12.9998 9.46597 12.9999C9.34965 13.0018 9.2355 12.9682 9.13869 12.9035C9.04189 12.8389 8.96703 12.7462 8.92405 12.6378L7.67823 9.36014C7.58792 9.12197 7.44863 8.90552 7.26941 8.72482C7.09019 8.54412 6.87506 8.40322 6.63798 8.31128L3.36773 7.06264C3.25741 7.02212 3.16258 6.94789 3.09663 6.85043C3.03069 6.75296 2.99696 6.6372 3.00022 6.51948C3.00031 6.4022 3.03785 6.28803 3.10734 6.19366C3.17683 6.0993 3.27463 6.0297 3.38642 5.99505L12.2192 3.04202C12.3206 3.00059 12.4318 2.9895 12.5394 3.01007C12.647 3.03064 12.7463 3.082 12.8254 3.15795C12.9044 3.23389 12.9599 3.33116 12.9849 3.438C13.01 3.54484 13.0037 3.65668 12.9667 3.75999Z" fill="#202638" fill-opacity="0.6"/>
</svg>
