<svg width="24" height="24" viewBox="0 0 24 24" fill="none" xmlns="http://www.w3.org/2000/svg">
<path fill-rule="evenodd" clip-rule="evenodd" d="M12.3983 21.0909C14.0148 20.2614 20 16.7987 20 11C20 6.58172 16.4183 3 12 3C7.58172 3 4 6.58172 4 11C4 16.7987 9.98521 20.2614 11.6017 21.0909C11.8552 21.2209 12.1448 21.2209 12.3983 21.0909ZM12 14.4286C13.8935 14.4286 15.4286 12.8935 15.4286 11C15.4286 9.10645 13.8935 7.57143 12 7.57143C10.1065 7.57143 8.57143 9.10645 8.57143 11C8.57143 12.8935 10.1065 14.4286 12 14.4286Z" fill="#272E49" fill-opacity="0.4"/>
</svg>
