<svg width="154" height="18" viewBox="0 0 154 18" fill="none" xmlns="http://www.w3.org/2000/svg">
<path d="M5.40393 17.6644L0.74292 0.360352H3.7638L7.38817 13.7042L11.1863 0.360352H14.0343L17.918 13.7905L21.4568 0.360352H24.5641L19.9031 17.6644H16.3644L12.6535 4.75082L8.94184 17.6644H5.40393Z" fill="#FEFEFE"/>
<path d="M26.6348 0.360352H29.5692V17.6644H26.6348V0.360352Z" fill="#FEFEFE"/>
<path d="M35.784 14.9952H42.8607V17.6644H32.936V0.360352H35.784V14.9952Z" fill="#FEFEFE"/>
<path d="M51.7494 0.360352C54.1703 0.360352 56.1511 1.22275 57.7047 2.8613C59.261 4.5861 60.1256 6.64896 60.1256 9.05936C60.1256 11.4698 59.261 13.5361 57.7047 15.172C56.1485 16.8968 54.166 17.673 51.7494 17.673H44.9321V0.360352H51.7494ZM51.7494 14.9952C53.3922 14.9952 54.7703 14.4778 55.7196 13.3567C56.8436 12.2356 57.3624 10.7747 57.3624 9.05246C57.3624 7.33025 56.8436 5.95386 55.7196 4.83447C54.7686 3.71335 53.3896 3.10968 51.7494 3.10968H47.7801V14.9901L51.7494 14.9952Z" fill="#FEFEFE"/>
<path d="M75.3987 12.7579C75.4046 13.4145 75.2774 14.0655 75.0248 14.672C74.7723 15.2784 74.3995 15.8276 73.9289 16.2868C72.8913 17.2354 71.6852 17.6666 70.218 17.6666H62.7981V0.360889H69.6163C70.9571 0.341728 72.2543 0.835489 73.2415 1.74073C74.279 2.68936 74.7113 3.81048 74.7113 5.18428C74.7113 6.7366 74.1061 7.8534 72.9821 8.71407C74.5358 9.48592 75.3987 10.9494 75.3987 12.7579ZM65.6461 3.03001V7.5921H69.7027C70.9132 7.5921 71.8642 6.64346 71.8642 5.35417C71.8642 4.06489 70.9132 3.0257 69.7027 3.0257L65.6461 3.03001ZM70.2206 15.082C71.5175 15.082 72.555 13.9609 72.555 12.5811C72.555 11.2012 71.5175 10.1707 70.2206 10.1707H65.6461V15.0777L70.2206 15.082Z" fill="#FEFEFE"/>
<path d="M81.0091 14.9952H88.6901V17.6644H78.1611V0.360352H88.5181V3.11571H81.0091V7.59242H87.9137V10.2607H81.0091V14.9952Z" fill="#FEFEFE"/>
<path d="M101.118 17.6644L97.4924 11.3792H94.0401V17.6644H91.2786V0.360352H98.1832C99.7395 0.360352 101.118 0.87779 102.153 1.99891C103.189 3.12002 103.796 4.41362 103.796 5.95904C103.796 8.11072 102.413 10.177 100.344 10.9515L104.314 17.667L101.118 17.6644ZM94.0401 3.02947V8.88343H98.1832C99.7395 8.88343 100.858 7.58983 100.858 5.95645C100.858 4.32307 99.6478 3.02947 98.1832 3.02947H94.0401Z" fill="#FEFEFE"/>
<path d="M116.309 17.6644L112.683 11.3792H109.317V17.6644H106.469V0.360352H113.461C115.017 0.360352 116.309 0.87779 117.344 1.99891C118.468 3.03378 118.987 4.41362 118.987 5.95904C118.987 8.11072 117.604 10.177 115.535 10.9515L119.505 17.667L116.309 17.6644ZM109.317 3.02947V8.88343H113.374C114.93 8.88343 116.136 7.58983 116.136 5.95645C116.136 4.32307 114.925 3.02947 113.374 3.02947H109.317Z" fill="#FEFEFE"/>
<path d="M121.573 0.360352H124.422V17.6644H121.573V0.360352Z" fill="#FEFEFE"/>
<path d="M130.636 14.9952H138.317V17.6644H127.788V0.360352H138.23V3.11571H130.636V7.59242H137.627V10.2607H130.636V14.9952Z" fill="#FEFEFE"/>
<path d="M140.302 13.7906L142.809 12.3245C143.501 14.308 144.971 15.2515 147.124 15.2515C149.278 15.2515 150.318 14.3029 150.318 12.923C150.318 12.2331 150.059 11.7157 149.453 11.3707C148.935 10.9395 147.897 10.5946 146.433 10.0771C144.703 9.64592 143.93 9.30096 142.721 8.5248C141.597 7.74864 141.078 6.62753 141.078 4.99501C141.078 3.52893 141.597 2.32675 142.721 1.37984C143.758 0.517439 145.137 0 146.691 0C149.458 0 151.611 1.46607 152.733 3.87389L150.312 5.25373C149.62 3.61517 148.323 2.83901 146.687 2.83901C144.958 2.83901 143.925 3.61517 143.925 4.99501C143.925 6.2886 144.79 6.89228 147.464 7.66413C148.069 7.92285 148.588 8.09533 148.847 8.18157C149.297 8.30814 149.731 8.48157 150.144 8.69901C150.749 8.87149 151.182 9.13021 151.441 9.38892C152.392 10.0788 153.257 11.2 153.257 12.9179C153.257 14.4702 152.652 15.7638 151.528 16.7064C150.404 17.5688 148.939 18 147.04 18C143.668 18.0086 141.251 16.4589 140.302 13.7906Z" fill="#FEFEFE"/>
</svg>
