<svg width="107" height="72" viewBox="0 0 107 72" fill="none" xmlns="http://www.w3.org/2000/svg">
<path d="M18.0147 0V5.98355C11.3307 6.01346 5.92298 11.4946 5.92298 18.2497V26.4281C8.43136 24.5113 11.5557 23.372 14.9437 23.372V29.3526C10.1431 29.3526 5.92298 33.1263 5.92298 37.8988V57.0247H0V18.1899C0 8.14553 8.0671 0 18.0147 0ZM102.574 34.9624C102.808 47.7937 92.4607 58.2417 79.7559 58.0025C67.7796 57.7782 58.0097 47.9103 57.7875 35.8206C57.5536 22.9893 67.901 12.5412 80.6088 12.7775C92.585 13.0017 102.355 22.8697 102.577 34.9594M96.7134 35.9372C97.0184 26.2816 89.203 18.3902 79.6404 18.6982C70.981 18.9763 63.9267 26.0992 63.6483 34.8428C63.3433 44.4984 71.1587 52.3897 80.7213 52.0817C89.3807 51.8036 96.435 44.6808 96.7134 35.9342M44.4223 39.8694V22.6215C46.6997 23.0371 49.6553 23.1986 52.5487 22.2417C58.4983 20.2741 61.9129 14.3354 61.9129 14.3354C61.9129 14.3354 55.6819 11.5814 49.7293 13.549C47.6326 14.2427 45.8498 15.4299 44.4223 16.6768V0.20932H38.4994V39.9292C38.4994 49.9766 46.5635 58.1191 56.5141 58.1191V52.1356C49.83 52.1057 44.4223 46.6245 44.4223 39.8694ZM24.1865 57.0247H30.1095V29.3137H24.1865V57.0247ZM28.6258 16.3808C24.8291 14.4401 19.9782 16.4017 19.9782 16.4017C19.9782 16.4017 21.2783 21.5151 25.0749 23.4558C28.8716 25.3995 33.7225 23.4348 33.7225 23.4348C33.7225 23.4348 32.4224 18.3215 28.6258 16.3808Z" fill="#4E8616"/>
<path d="M7.44523 70.6634C6.75817 71.5395 5.56173 71.997 4.36825 71.997C1.85394 71.997 0.0592804 70.3165 0.0592804 67.7209C0.0592804 65.3257 1.79767 63.4448 4.11356 63.4448C5.38108 63.4448 6.50348 63.7199 7.28235 64.4675L6.82925 65.236C6.10664 64.5781 5.20043 64.3419 4.25867 64.3419C2.53805 64.3419 1.05434 65.7683 1.05434 67.7239C1.05434 69.8081 2.53805 71.1059 4.43932 71.1059C5.49065 71.1059 6.41167 70.6305 6.97436 69.9726L7.44523 70.6664V70.6634Z" fill="#4E8616"/>
<path d="M16.5664 63.4478C19.1015 63.4478 20.8369 65.2569 20.8369 67.7239C20.8369 70.1908 19.0985 72 16.5664 72C14.0344 72 12.296 70.1908 12.296 67.7239C12.296 65.2569 14.0344 63.4478 16.5664 63.4478ZM16.5664 71.1029C18.4855 71.1029 19.8418 69.7154 19.8418 67.7209C19.8418 65.7264 18.4855 64.3418 16.5664 64.3418C14.6474 64.3418 13.291 65.7293 13.291 67.7209C13.291 69.7124 14.6652 71.1029 16.5664 71.1029Z" fill="#4E8616"/>
<path d="M26.6474 65.6217C26.6474 64.306 27.7136 63.4478 29.2713 63.4478C30.4115 63.4478 31.3532 63.8664 31.8241 64.3628L31.4273 65.0745C30.9208 64.599 30.1242 64.288 29.292 64.288C28.2792 64.288 27.6454 64.8921 27.6454 65.6037C27.6454 67.7777 32.1528 66.755 32.1528 69.6436C32.1528 71.2703 30.7787 72 29.2209 72C28.0808 72 26.8133 71.3959 26.4342 70.8128L26.9584 70.1908C27.4115 70.7739 28.5161 71.1597 29.3305 71.1597C30.2723 71.1597 31.1578 70.6842 31.1578 69.6795C31.1578 67.6132 26.6504 68.6389 26.6504 65.6217" fill="#4E8616"/>
<path d="M50.1736 71.8354H49.2319V66.7011C49.2319 65.0924 48.527 64.3627 47.1677 64.3627C46.0276 64.3627 45.1421 64.9488 44.6712 65.7323C44.7067 65.8788 44.7067 66.136 44.7067 66.3154V71.8354H43.765V66.2795C43.765 65.1462 43.0424 64.3597 41.7186 64.3597C40.5962 64.3597 39.69 64.9997 39.2398 65.6575V71.8324H38.2981V63.6092H39.2398V64.7604C39.8558 63.9919 40.9604 63.4626 42.0621 63.4626C43.3296 63.4626 44.2714 64.0278 44.5587 64.9787C45.1569 64.0637 46.3148 63.4626 47.5261 63.4626C49.0453 63.4626 50.1677 64.1923 50.1677 66.441V71.8324L50.1736 71.8354Z" fill="#4E8616"/>
<path d="M63.4233 70.8278C62.68 71.6143 61.5043 71.997 60.4174 71.997C57.8468 71.997 56.0936 70.3165 56.0936 67.7209C56.0936 65.3257 57.5418 63.4448 60.219 63.4448C62.3187 63.4448 63.9119 64.9071 63.9119 67.1558C63.9119 67.4668 63.8942 67.703 63.8586 67.9243H57.1449C57.216 69.8979 58.5191 71.1029 60.4737 71.1029C61.5783 71.1029 62.5556 70.6813 63.1153 70.0982L63.4233 70.8278ZM57.0887 67.1378H62.9524C62.9169 65.4035 61.83 64.3419 60.1301 64.3419C58.3206 64.3419 57.2516 65.5291 57.0887 67.1378Z" fill="#4E8616"/>
<path d="M69.7758 61.3277H70.7175V63.6123H73.9929V64.5064H70.7175V68.5642C70.7175 70.173 71.2417 71.0491 72.5448 71.0491C73.0867 71.0491 73.5576 70.8308 73.8478 70.6095L74.1558 71.3601C73.7767 71.6711 73.1074 71.9432 72.3286 71.9432C70.5191 71.9432 69.7758 70.8099 69.7758 68.7077V61.3247V61.3277Z" fill="#4E8616"/>
<path d="M81.0145 60.4067C81.3224 60.4067 81.6304 60.643 81.6304 61.0108C81.6304 61.4294 81.3224 61.6866 81.0145 61.6866C80.6532 61.6866 80.3452 61.4294 80.3452 61.0108C80.3452 60.646 80.6532 60.4067 81.0145 60.4067ZM80.508 63.6123H81.4498V71.8356H80.508V63.6123Z" fill="#4E8616"/>
<path d="M95.3838 70.6634C94.6967 71.5395 93.5003 71.997 92.3068 71.997C89.7925 71.997 88.0008 70.3165 88.0008 67.7209C88.0008 65.3257 89.7392 63.4448 92.0551 63.4448C93.3226 63.4448 94.445 63.7199 95.2209 64.4675L94.7678 65.236C94.0452 64.5781 93.139 64.3419 92.1972 64.3419C90.4766 64.3419 88.9929 65.7683 88.9929 67.7239C88.9929 69.8081 90.4766 71.1059 92.3779 71.1059C93.4262 71.1059 94.3502 70.6305 94.9129 69.9726L95.3838 70.6664V70.6634Z" fill="#4E8616"/>
<path d="M102.325 5.74146C104.783 5.74146 106.714 7.6672 106.714 10.1132C106.714 12.5593 104.783 14.5359 102.296 14.5359C99.8081 14.5359 97.8535 12.6161 97.8535 10.1132C97.8535 7.61038 99.8111 5.74146 102.296 5.74146H102.325ZM102.272 6.50697C100.309 6.50697 98.8101 8.13368 98.8101 10.1162C98.8101 12.0988 100.309 13.7434 102.325 13.7434C104.286 13.7704 105.74 12.1436 105.74 10.1402C105.74 8.13667 104.283 6.50996 102.296 6.50996H102.269L102.272 6.50697ZM101.505 12.5294H100.664V7.93931C101.129 7.8496 101.621 7.79877 102.242 7.79877C103.015 7.79877 103.394 7.93931 103.697 8.15461C103.969 8.35496 104.161 8.70781 104.161 9.12346C104.161 9.70059 103.738 10.0594 103.258 10.2269V10.2747C103.664 10.4362 103.877 10.795 104.022 11.3781C104.164 12.0928 104.236 12.3619 104.351 12.5294H103.483C103.341 12.3619 103.226 11.9463 103.116 11.3153C103.018 10.8219 102.716 10.6007 102.062 10.6007H101.508V12.5264L101.505 12.5294ZM101.505 9.94579H102.085C102.713 9.94579 103.255 9.75142 103.255 9.19822C103.255 8.75566 102.989 8.47158 102.162 8.47158C101.84 8.47158 101.647 8.48354 101.505 8.51046V9.94579Z" fill="#4E8616"/>
</svg>
