<svg width="95" height="64" viewBox="0 0 95 64" fill="none" xmlns="http://www.w3.org/2000/svg">
<path d="M16.0131 0V5.31871C10.0717 5.34529 5.26487 10.2175 5.26487 16.2219V23.4917C7.49454 21.7879 10.2718 20.7751 13.2833 20.7751V26.0912C9.01609 26.0912 5.26487 29.4456 5.26487 33.6878V50.6886H0V16.1688C0 7.24047 7.17075 0 16.0131 0ZM91.177 31.0777C91.385 42.4833 82.1872 51.7704 70.8941 51.5578C60.2485 51.3584 51.5641 42.5869 51.3667 31.8405C51.1587 20.4349 60.3565 11.1478 71.6522 11.3578C82.2978 11.5571 90.9822 20.3286 91.1796 31.075M85.9674 31.9442C86.2386 23.3614 79.2916 16.3469 70.7914 16.6206C63.0942 16.8678 56.8237 23.1993 56.5763 30.9713C56.3051 39.5541 63.2521 46.5686 71.7523 46.2949C79.4495 46.0477 85.72 39.7163 85.9674 31.9415M39.4865 35.4395V20.108C41.5109 20.4774 44.138 20.621 46.7099 19.7704C51.9985 18.0214 55.0337 12.7426 55.0337 12.7426C55.0337 12.7426 49.495 10.2945 44.2038 12.0435C42.3401 12.6602 40.7554 13.7154 39.4865 14.8238V0.186062H34.2217V35.4926C34.2217 44.4236 41.3898 51.6614 50.2348 51.6614V46.3427C44.2934 46.3161 39.4865 41.444 39.4865 35.4395ZM21.4991 50.6886H26.764V26.0566H21.4991V50.6886ZM25.4451 14.5607C22.0703 12.8356 17.7584 14.5793 17.7584 14.5793C17.7584 14.5793 18.914 19.1245 22.2888 20.8496C25.6636 22.5773 29.9755 20.831 29.9755 20.831C29.9755 20.831 28.8199 16.2857 25.4451 14.5607Z" fill="#4E8616"/>
<path d="M6.61797 62.8117C6.00724 63.5905 4.94374 63.9972 3.88287 63.9972C1.64793 63.9972 0.0526733 62.5034 0.0526733 60.1962C0.0526733 58.0672 1.59791 56.3953 3.65648 56.3953C4.78316 56.3953 5.78085 56.6398 6.47318 57.3043L6.07042 57.9874C5.42811 57.4027 4.62258 57.1927 3.78547 57.1927C2.25602 57.1927 0.937172 58.4606 0.937172 60.1989C0.937172 62.0515 2.25602 63.2051 3.94605 63.2051C4.88056 63.2051 5.69925 62.7825 6.19941 62.1977L6.61797 62.8144V62.8117Z" fill="#4E8616"/>
<path d="M14.7257 56.3979C16.9791 56.3979 18.5217 58.0061 18.5217 60.1989C18.5217 62.3918 16.9765 63.9999 14.7257 63.9999C12.475 63.9999 10.9297 62.3918 10.9297 60.1989C10.9297 58.0061 12.475 56.3979 14.7257 56.3979ZM14.7257 63.2025C16.4315 63.2025 17.6372 61.9692 17.6372 60.1963C17.6372 58.4234 16.4315 57.1927 14.7257 57.1927C13.0199 57.1927 11.8142 58.426 11.8142 60.1963C11.8142 61.9665 13.0357 63.2025 14.7257 63.2025Z" fill="#4E8616"/>
<path d="M23.6866 58.3303C23.6866 57.1608 24.6343 56.3979 26.0189 56.3979C27.0324 56.3979 27.8695 56.7701 28.2881 57.2113L27.9354 57.8439C27.4852 57.4213 26.7771 57.1449 26.0374 57.1449C25.1371 57.1449 24.5737 57.6818 24.5737 58.3144C24.5737 60.2468 28.5803 59.3377 28.5803 61.9054C28.5803 63.3513 27.3589 63.9999 25.9742 63.9999C24.9607 63.9999 23.834 63.463 23.4971 62.9447L23.963 62.3918C24.3658 62.9101 25.3477 63.253 26.0716 63.253C26.9087 63.253 27.6958 62.8304 27.6958 61.9373C27.6958 60.1006 23.6892 61.0123 23.6892 58.3303" fill="#4E8616"/>
<path d="M44.5988 63.8539H43.7617V59.29C43.7617 57.86 43.1352 57.2114 41.9269 57.2114C40.9134 57.2114 40.1263 57.7324 39.7077 58.4288C39.7393 58.5591 39.7393 58.7877 39.7393 58.9471V63.8539H38.9022V58.9152C38.9022 57.9078 38.2599 57.2088 37.0832 57.2088C36.0855 57.2088 35.28 57.7776 34.8798 58.3624V63.8512H34.0427V56.5416H34.8798V57.565C35.4274 56.8819 36.4093 56.4114 37.3885 56.4114C38.5152 56.4114 39.3523 56.9137 39.6077 57.759C40.1394 56.9456 41.1687 56.4114 42.2454 56.4114C43.5958 56.4114 44.5935 57.0599 44.5935 59.0588V63.8512L44.5988 63.8539Z" fill="#4E8616"/>
<path d="M56.3762 62.9579C55.7155 63.657 54.6704 63.9972 53.7043 63.9972C51.4194 63.9972 49.861 62.5034 49.861 60.1962C49.861 58.0672 51.1482 56.3953 53.5279 56.3953C55.3943 56.3953 56.8106 57.695 56.8106 59.6939C56.8106 59.9703 56.7948 60.1803 56.7632 60.377H50.7955C50.8587 62.1313 52.0169 63.2025 53.7543 63.2025C54.7362 63.2025 55.6049 62.8277 56.1025 62.3094L56.3762 62.9579ZM50.7455 59.6779H55.9577C55.9261 58.1363 54.96 57.1927 53.449 57.1927C51.8406 57.1927 50.8902 58.2479 50.7455 59.6779Z" fill="#4E8616"/>
<path d="M62.0229 54.5134H62.86V56.5441H65.7715V57.3389H62.86V60.9458C62.86 62.3758 63.3259 63.1547 64.4842 63.1547C64.966 63.1547 65.3845 62.9606 65.6425 62.7639L65.9163 63.4311C65.5793 63.7075 64.9844 63.9494 64.292 63.9494C62.6836 63.9494 62.0229 62.942 62.0229 61.0734V54.5107V54.5134Z" fill="#4E8616"/>
<path d="M72.0128 53.6948C72.2866 53.6948 72.5604 53.9048 72.5604 54.2317C72.5604 54.6039 72.2866 54.8325 72.0128 54.8325C71.6917 54.8325 71.4179 54.6039 71.4179 54.2317C71.4179 53.9075 71.6917 53.6948 72.0128 53.6948ZM71.5627 56.5442H72.3998V63.8538H71.5627V56.5442Z" fill="#4E8616"/>
<path d="M84.7856 62.8117C84.1748 63.5905 83.1113 63.9972 82.0505 63.9972C79.8155 63.9972 78.2229 62.5034 78.2229 60.1962C78.2229 58.0672 79.7681 56.3953 81.8267 56.3953C82.9534 56.3953 83.9511 56.6398 84.6408 57.3043L84.238 57.9874C83.5957 57.4027 82.7902 57.1927 81.9531 57.1927C80.4236 57.1927 79.1048 58.4606 79.1048 60.1989C79.1048 62.0515 80.4236 63.2051 82.1136 63.2051C83.0455 63.2051 83.8668 62.7825 84.367 62.1977L84.7856 62.8144V62.8117Z" fill="#4E8616"/>
<path d="M90.9559 5.10352C93.1408 5.10352 94.8571 6.81529 94.8571 8.98955C94.8571 11.1638 93.1408 12.9208 90.9295 12.9208C88.7183 12.9208 86.9809 11.2143 86.9809 8.98955C86.9809 6.76478 88.7209 5.10352 90.9295 5.10352H90.9559ZM90.9085 5.78397C89.1632 5.78397 87.8312 7.22994 87.8312 8.99221C87.8312 10.7545 89.1632 12.2164 90.9559 12.2164C92.6985 12.2403 93.9911 10.7944 93.9911 9.01347C93.9911 7.2326 92.6959 5.78663 90.9295 5.78663H90.9059L90.9085 5.78397ZM90.2267 11.1372H89.4791V7.05717C89.8924 6.97742 90.3293 6.93224 90.8822 6.93224C91.5692 6.93224 91.9062 7.05717 92.1747 7.24854C92.4169 7.42663 92.588 7.74028 92.588 8.10975C92.588 8.62274 92.2115 8.94171 91.7851 9.09056V9.13309C92.1457 9.27662 92.3353 9.59558 92.4643 10.1139C92.5906 10.7492 92.6538 10.9884 92.7565 11.1372H91.9852C91.8588 10.9884 91.7561 10.6189 91.6587 10.0581C91.5719 9.6195 91.3034 9.42281 90.7216 9.42281H90.2293V11.1346L90.2267 11.1372ZM90.2267 8.8407H90.7426C91.3007 8.8407 91.7825 8.66793 91.7825 8.1762C91.7825 7.78281 91.5455 7.53029 90.8111 7.53029C90.5242 7.53029 90.353 7.54093 90.2267 7.56485V8.8407Z" fill="#4E8616"/>
</svg>
