<svg width="92" height="20" viewBox="0 0 92 20" fill="none" xmlns="http://www.w3.org/2000/svg">
<path d="M38.4557 14.8809H30.551L40.6426 1.52718C40.8625 1.23396 40.8014 0.806353 40.5082 0.586439C40.3983 0.500917 40.2516 0.452046 40.105 0.452046H25.5052C24.2223 0.452046 23.1716 1.50275 23.1716 2.78558C23.1716 4.06842 24.2223 5.11912 25.5052 5.11912H32.0659L21.9377 18.485C21.7055 18.7782 21.7666 19.1936 22.0598 19.4258C22.182 19.5235 22.3286 19.5724 22.4752 19.5602H38.4435C39.7263 19.4991 40.7159 18.3995 40.6548 17.1045C40.5937 15.9071 39.6408 14.9542 38.4435 14.8931V14.8809H38.4557ZM89.4758 0.452046C88.193 0.452046 87.1423 1.50275 87.1423 2.78558V10.617L74.5339 0.610874C74.2529 0.378742 73.8253 0.415394 73.5931 0.708614C73.4954 0.830788 73.4465 0.977398 73.4465 1.13623V17.2266C73.4465 18.5095 74.4972 19.5602 75.7801 19.5602C77.0629 19.5602 78.1136 18.5217 78.1136 17.2266V9.39523L90.722 19.4136C91.0152 19.6457 91.4428 19.5968 91.675 19.3036C91.7727 19.1814 91.8216 19.0348 91.8216 18.8882V2.78558C91.8094 1.49053 90.7709 0.452046 89.4758 0.452046ZM56.1099 15.3207C50.7709 15.3207 46.788 12.5107 46.788 9.99389C46.788 7.47709 50.7831 4.66707 56.1099 4.66707C61.449 4.66707 65.4318 7.47709 65.4318 9.99389C65.4318 12.5107 61.4612 15.3207 56.1099 15.3207ZM56.1099 0C48.3885 0 42.1209 4.47159 42.1209 9.99389C42.1209 15.5162 48.3885 19.9878 56.1099 19.9878C63.8314 19.9878 70.0989 15.5162 70.0989 9.99389C70.0989 4.47159 63.8314 0 56.1099 0ZM10.1845 15.3329C7.24004 15.3329 4.84542 12.9505 4.84542 10.0061C4.84542 7.0617 7.22783 4.66707 10.1722 4.66707C13.1166 4.66707 15.5113 7.04948 15.5113 9.99389V10.0061C15.5113 12.9383 13.1289 15.3207 10.1845 15.3329ZM10.1845 0C4.66216 0 0.190562 4.47159 0.178345 9.99389C0.178345 15.5162 4.64994 19.9878 10.1722 20C15.6945 20 20.1661 15.5284 20.1783 10.0061V9.99389C20.1661 4.47159 15.6945 0 10.1845 0Z" fill="white"/>
</svg>
