<svg width="198" height="24" viewBox="0 0 198 24" fill="none" xmlns="http://www.w3.org/2000/svg">
<path d="M8.28028 0V2.4619C5.50341 2.47421 3.25682 4.72941 3.25682 7.50874V10.8737C4.29891 10.0851 5.59692 9.61631 7.00442 9.61631V12.077C5.01005 12.077 3.25682 13.6297 3.25682 15.5933V23.4625H0.796143V7.48414C0.796143 3.35144 4.14758 0 8.28028 0ZM43.4101 14.3851C43.5073 19.6645 39.2085 23.9633 33.9303 23.8648C28.9549 23.7726 24.896 19.7125 24.8037 14.7382C24.7065 9.45883 29.0053 5.16003 34.2847 5.25723C39.2602 5.3495 43.319 9.40961 43.4113 14.3839M40.9753 14.7862C41.102 10.8134 37.8551 7.56657 33.8824 7.69329C30.2849 7.80772 27.3542 10.7384 27.2385 14.3359C27.1118 18.3086 30.3587 21.5555 34.3314 21.4288C37.9289 21.3144 40.8596 18.3837 40.9753 14.785M19.2512 16.4041V9.3075C20.1973 9.47851 21.4252 9.54495 22.6272 9.15124C25.099 8.34168 26.5176 5.89823 26.5176 5.89823C26.5176 5.89823 23.9289 4.76509 21.456 5.57466C20.5849 5.86009 19.8442 6.34854 19.2512 6.86159V0.0861236H16.7905V16.4287C16.7905 20.5626 20.1407 23.9128 24.2747 23.9128V21.4509C21.4978 21.4386 19.2512 19.1834 19.2512 16.4041ZM10.8443 23.4625H13.305V12.061H10.8443V23.4625ZM12.6886 6.73978C11.1113 5.94129 9.09599 6.7484 9.09599 6.7484C9.09599 6.7484 9.63611 8.85227 11.2134 9.65076C12.7907 10.4505 14.806 9.64215 14.806 9.64215C14.806 9.64215 14.2659 7.53827 12.6886 6.73978Z" fill="#4E8616"/>
<path d="M193.786 3.70288C195.84 3.70288 197.454 5.3246 197.454 7.38448C197.454 9.44436 195.84 11.1089 193.761 11.1089C191.682 11.1089 190.048 9.49221 190.048 7.38448C190.048 5.27675 191.684 3.70288 193.761 3.70288H193.786ZM193.741 4.34754C192.1 4.34754 190.847 5.71744 190.847 7.387C190.847 9.05656 192.1 10.4416 193.786 10.4416C195.424 10.4642 196.64 9.09434 196.64 7.40715C196.64 5.71995 195.422 4.35006 193.761 4.35006H193.738L193.741 4.34754ZM193.1 9.41918H192.397V5.55375C192.786 5.47821 193.196 5.4354 193.716 5.4354C194.362 5.4354 194.679 5.55375 194.932 5.73506C195.159 5.90378 195.32 6.20093 195.32 6.55096C195.32 7.03697 194.966 7.33915 194.565 7.48017V7.52046C194.904 7.65645 195.083 7.95863 195.204 8.44968C195.323 9.05153 195.382 9.27816 195.479 9.41918H194.753C194.635 9.27816 194.538 8.92813 194.446 8.3968C194.365 7.98129 194.112 7.79495 193.565 7.79495H193.102V9.41666L193.1 9.41918ZM193.1 7.24346H193.585C194.11 7.24346 194.563 7.07978 194.563 6.61391C194.563 6.24122 194.34 6.00199 193.649 6.00199C193.38 6.00199 193.219 6.01206 193.1 6.03473V7.24346Z" fill="#579B11"/>
<path d="M66.0188 21.1234C64.5692 22.9542 62.0448 23.9102 59.5267 23.9102C54.2218 23.9102 50.4353 20.3986 50.4353 14.975C50.4353 9.97004 54.1031 6.03979 58.9894 6.03979C61.6637 6.03979 64.0318 6.61465 65.6751 8.17674L64.7191 9.78259C63.1945 8.40794 61.2825 7.91431 59.2955 7.91431C55.6652 7.91431 52.5348 10.8948 52.5348 14.9812C52.5348 19.3364 55.6652 22.0482 59.6767 22.0482C61.8949 22.0482 63.8381 21.0547 65.0253 19.68L66.0188 21.1297V21.1234Z" fill="#579B11"/>
<path d="M78.1149 6.03979C83.4635 6.03979 87.1251 9.82008 87.1251 14.975C87.1251 20.1299 83.4573 23.9102 78.1149 23.9102C72.7725 23.9102 69.1047 20.1299 69.1047 14.975C69.1047 9.82008 72.7725 6.03979 78.1149 6.03979ZM78.1149 22.0357C82.1639 22.0357 85.0256 19.1364 85.0256 14.9688C85.0256 10.8011 82.1639 7.90807 78.1149 7.90807C74.066 7.90807 71.2042 10.8073 71.2042 14.9688C71.2042 19.1302 74.1035 22.0357 78.1149 22.0357Z" fill="#579B11"/>
<path d="M90.6607 10.5824C90.6607 7.83309 92.9101 6.03979 96.1968 6.03979C98.6024 6.03979 100.589 6.91458 101.583 7.95181L100.746 9.43892C99.6771 8.44543 97.9963 7.7956 96.2405 7.7956C94.1036 7.7956 92.7664 9.05777 92.7664 10.5449C92.7664 15.0875 102.276 12.9505 102.276 18.9865C102.276 22.3856 99.3772 23.9102 96.0906 23.9102C93.6849 23.9102 91.0106 22.648 90.2108 21.4296L91.3168 20.1299C92.2728 21.3484 94.6034 22.1544 96.3217 22.1544C98.3087 22.1544 100.177 21.1609 100.177 19.0615C100.177 14.7438 90.6669 16.887 90.6669 10.5824" fill="#579B11"/>
<path d="M130.418 23.5353H128.431V12.8068C128.431 9.44517 126.944 7.92057 124.076 7.92057C121.671 7.92057 119.802 9.14525 118.809 10.7823C118.884 11.0885 118.884 11.6259 118.884 12.0008V23.5353H116.897V11.9258C116.897 9.55764 115.372 7.91431 112.579 7.91431C110.211 7.91431 108.299 9.25148 107.349 10.6261V23.5291H105.362V6.34597H107.349V8.75161C108.649 7.14577 110.98 6.03979 113.304 6.03979C115.978 6.03979 117.965 7.22075 118.571 9.20774C119.834 7.29573 122.277 6.03979 124.832 6.03979C128.038 6.03979 130.406 7.56441 130.406 12.2632V23.5291L130.418 23.5353Z" fill="#579B11"/>
<path d="M148.969 21.4671C147.401 23.1104 144.92 23.9102 142.627 23.9102C137.203 23.9102 133.504 20.3986 133.504 14.975C133.504 9.97004 136.56 6.03979 142.208 6.03979C146.638 6.03979 150 9.09526 150 13.7941C150 14.4439 149.962 14.9375 149.887 15.3999H135.722C135.872 19.5238 138.622 22.0419 142.746 22.0419C145.076 22.0419 147.138 21.1609 148.319 19.9425L148.969 21.4671ZM135.604 13.7566H147.975C147.9 10.1325 145.607 7.91431 142.021 7.91431C138.203 7.91431 135.947 10.3949 135.604 13.7566Z" fill="#579B11"/>
<path d="M153.086 1.81826H155.073V6.59203H161.984V8.4603H155.073V16.9394C155.073 20.301 156.179 22.1318 158.928 22.1318C160.072 22.1318 161.065 21.6757 161.677 21.2133L162.327 22.7816C161.527 23.4315 160.115 24.0001 158.472 24.0001C154.654 24.0001 153.086 21.6319 153.086 17.2393V1.81201V1.81826Z" fill="#579B11"/>
<path d="M167.575 0C168.225 0 168.875 0.493626 168.875 1.26218C168.875 2.13695 168.225 2.67431 167.575 2.67431C166.813 2.67431 166.163 2.13695 166.163 1.26218C166.163 0.499874 166.813 0 167.575 0ZM166.507 6.69828H168.494V23.8814H166.507V6.69828Z" fill="#579B11"/>
<path d="M188.288 21.1234C186.838 22.9542 184.314 23.9102 181.796 23.9102C176.491 23.9102 172.711 20.3986 172.711 14.975C172.711 9.97004 176.378 6.03979 181.265 6.03979C183.939 6.03979 186.307 6.61465 187.944 8.17674L186.988 9.78259C185.464 8.40794 183.552 7.91431 181.565 7.91431C177.934 7.91431 174.804 10.8948 174.804 14.9812C174.804 19.3364 177.934 22.0482 181.946 22.0482C184.158 22.0482 186.107 21.0547 187.294 19.68L188.288 21.1297V21.1234Z" fill="#579B11"/>
</svg>
