<svg width="17" height="16" viewBox="0 0 17 16" fill="none" xmlns="http://www.w3.org/2000/svg">
<path fill-rule="evenodd" clip-rule="evenodd" d="M1.85712 4C1.85712 3.44772 2.30483 3 2.85712 3H9.85712C10.4094 3 10.8571 3.44772 10.8571 4C10.8571 4.55228 10.4094 5 9.85712 5H2.85712C2.30483 5 1.85712 4.55228 1.85712 4ZM1.85712 8C1.85712 7.44772 2.30483 7 2.85712 7H14.8571C15.4094 7 15.8571 7.44772 15.8571 8C15.8571 8.55228 15.4094 9 14.8571 9H2.85712C2.30483 9 1.85712 8.55228 1.85712 8ZM2.85712 11C2.30483 11 1.85712 11.4477 1.85712 12C1.85712 12.5523 2.30483 13 2.85712 13H14.8571C15.4094 13 15.8571 12.5523 15.8571 12C15.8571 11.4477 15.4094 11 14.8571 11H2.85712Z" fill="white"/>
</svg>
