<svg width="24" height="24" viewBox="0 0 24 24" fill="none" xmlns="http://www.w3.org/2000/svg">
<path fill-rule="evenodd" clip-rule="evenodd" d="M1 6C1 5.44772 1.44772 5 2 5H15C15.5523 5 16 5.44772 16 6C16 6.55228 15.5523 7 15 7H2C1.44772 7 1 6.55228 1 6ZM1 12C1 11.4477 1.44772 11 2 11H22C22.5523 11 23 11.4477 23 12C23 12.5523 22.5523 13 22 13H2C1.44772 13 1 12.5523 1 12ZM2 17C1.44772 17 1 17.4477 1 18C1 18.5523 1.44772 19 2 19H22C22.5523 19 23 18.5523 23 18C23 17.4477 22.5523 17 22 17H2Z" fill="#202638" fill-opacity="0.6"/>
</svg>
