<svg width="79" height="80" viewBox="0 0 79 80" fill="none" xmlns="http://www.w3.org/2000/svg">
<g clip-path="url(#clip0_5201_36979)">
<path d="M20.0376 24.1321C19.1514 17.0423 22.7672 13.3555 27.8985 12.1946C34.0312 10.8121 40.2348 12.6643 45.8624 15.0482C45.2775 15.0482 44.6837 15.2521 44.1786 15.5357C42.025 16.7409 40.4475 18.7084 39.1891 20.791C37.9129 22.9091 37.009 25.2399 34.9883 26.7997C32.1258 28.9975 27.6858 28.7405 24.5663 26.9149" stroke="#4E8616" stroke-width="2" stroke-linecap="round" stroke-linejoin="round"/>
<path d="M62.9401 30.3357C64.4112 33.5793 65.2354 37.1774 65.2354 40.9704C65.2354 55.1678 53.7321 66.6711 39.5347 66.6711C25.3373 66.6711 13.834 55.1678 13.834 40.9704C13.834 29.8925 20.8441 20.4453 30.6724 16.8384" stroke="#4E8616" stroke-width="2" stroke-linecap="round" stroke-linejoin="round"/>
<path d="M35.1036 54.2638C33.3311 42.7428 20.9239 37.4255 20.9239 37.4255C20.9239 37.4255 28.2973 36.1759 33.3311 39.1979" stroke="#4E8616" stroke-width="2" stroke-linecap="round" stroke-linejoin="round"/>
<path d="M67.0079 11.7249C31.7625 37.913 35.1036 54.2639 35.1036 54.2639L43.0796 58.6951C43.0796 58.6951 43.8418 32.8703 67.0079 11.7249Z" stroke="#4E8616" stroke-width="2" stroke-linecap="round" stroke-linejoin="round"/>
<path d="M6.53152 64.6239L11.1399 60.4763L11.6451 61.0346L7.03668 65.1822L6.53152 64.6239ZM14.1708 63.8351L10.1562 63.7288L9.65992 68.089L9.01297 67.3712L9.53585 63.1173L13.5593 63.1527L14.1708 63.8263V63.8351Z" fill="#4E8616"/>
<path d="M10.7234 69.117L16.6789 65.8645L17.184 66.2633L15.4204 72.8126L14.7912 72.3163L15.3229 70.3488L13.0985 68.603L11.3172 69.5955L10.7234 69.1258V69.117ZM16.2978 66.8394L13.7809 68.2307L15.5356 69.6133L16.2978 66.8394Z" fill="#4E8616"/>
<path d="M23.3522 70.2159L20.3301 75.6307L19.6743 75.2674L20.9948 72.9011C20.4542 72.9632 19.8959 72.8391 19.3287 72.5201C18.859 72.2542 18.54 71.8997 18.3893 71.4477C18.2386 71.0046 18.3273 70.4817 18.664 69.888L19.6389 68.1421L20.2947 68.5054L19.4262 70.0741C18.9299 70.9603 19.1426 71.5984 19.8427 71.9972C20.2858 72.2453 20.7821 72.334 21.3316 72.2896L22.6875 69.8525L23.3433 70.2247L23.3522 70.2159Z" fill="#4E8616"/>
<path d="M23.1661 76.898L25.293 71.0667L28.5809 72.2631L28.3417 72.9277L25.7627 71.9883L25.0803 73.8671L27.4111 74.7179L27.1718 75.3826L24.8411 74.5318L24.1321 76.4815L26.7996 77.4564L26.5603 78.121L23.1838 76.8892L23.1661 76.898Z" fill="#4E8616"/>
<path d="M33.8274 79.1492C33.34 79.486 32.5424 79.6012 31.7713 79.4594C30.8585 79.2821 30.1673 78.8479 29.6976 78.1743C29.2456 77.4919 29.1038 76.6766 29.281 75.7283C29.4583 74.8333 29.866 74.1331 30.5306 73.6457C31.1953 73.1494 31.9929 72.9988 32.9235 73.176C33.6945 73.3267 34.2794 73.6457 34.6605 74.1243L34.2173 74.6206C33.8629 74.2395 33.402 73.9913 32.7994 73.8761C32.1347 73.7521 31.5587 73.8761 31.0446 74.2395C30.5306 74.6117 30.2116 75.1523 30.0698 75.879C29.928 76.6057 30.0343 77.2349 30.38 77.7755C30.7345 78.3073 31.2662 78.644 31.9752 78.777C32.5778 78.8922 33.1273 78.8124 33.6413 78.5377L33.8274 79.1492Z" fill="#4E8616"/>
<path d="M35.5999 74.3814L35.6353 73.6724L40.7223 73.9028L40.6868 74.6118L38.5156 74.5143L38.2674 80L37.5141 79.9646L37.7623 74.4788L35.591 74.3814H35.5999Z" fill="#4E8616"/>
<path d="M41.8655 73.7431C42.7784 73.6013 43.3367 73.5216 43.5494 73.495C44.9319 73.3177 45.6054 73.8406 45.7206 74.7711C45.8181 75.5067 45.4548 76.0384 44.8433 76.3309V76.3486C45.6409 76.3841 46.1992 76.8272 46.3056 77.6514C46.4562 78.8478 45.6409 79.5479 44.2938 79.7163C43.6646 79.7961 43.124 79.8581 42.6366 79.8847L41.8655 73.7431ZM42.6986 74.3457L42.9467 76.3309L43.9305 76.2068C44.604 76.1182 45.0737 75.6662 44.9851 75.0281C44.9053 74.3635 44.4445 74.0976 43.6114 74.1951C43.4342 74.2217 43.1328 74.266 42.6897 74.3369L42.6986 74.3457ZM43.0265 76.9956L43.2924 79.0871C43.5671 79.0871 43.8861 79.0516 44.2495 79.0073C45.1712 78.8921 45.6409 78.4401 45.5523 77.6957C45.4725 77.0576 44.9142 76.7563 44.0279 76.8715L43.0354 76.9956H43.0265Z" fill="#4E8616"/>
<path d="M49.2301 78.8035L47.5108 72.8481L50.8696 71.8821L51.0646 72.5645L48.4236 73.3266L48.9731 75.2498L51.357 74.5585L51.552 75.2409L49.1681 75.9233L49.7441 77.9173L52.4648 77.1286L52.6598 77.811L49.2124 78.8035H49.2301Z" fill="#4E8616"/>
<path d="M59.0584 75.0283L57.8265 72.5025L54.7602 73.9914L55.992 76.5171L55.3185 76.845L52.6066 71.2707L53.2802 70.9428L54.4588 73.3533L57.5252 71.8644L56.3554 69.4539L57.0289 69.126L59.7408 74.7004L59.0672 75.0283H59.0584Z" fill="#4E8616"/>
<path d="M65.8115 70.4995L64.1188 68.2573L61.398 70.3134L63.0907 72.5556L62.4881 73.0075L58.7571 68.0535L59.3597 67.6015L60.9727 69.7462L63.6934 67.6902L62.0804 65.5455L62.6831 65.0935L66.4141 70.0475L65.8115 70.4995Z" fill="#4E8616"/>
<path d="M65.0759 63.9858C65.0139 63.1351 65.2886 62.364 65.8912 61.6816C66.4939 60.9992 67.2206 60.6359 68.0625 60.5827C68.9044 60.5295 69.6843 60.8131 70.3756 61.4335C71.058 62.0361 71.4302 62.7717 71.4833 63.6225C71.5365 64.4733 71.2618 65.2354 70.6592 65.909C70.0565 66.5914 69.3298 66.9547 68.4879 67.0167C67.646 67.0699 66.8749 66.7775 66.1748 66.166C65.5013 65.5633 65.1379 64.8455 65.0759 63.9947V63.9858ZM68.4879 66.228C69.1348 66.2014 69.6932 65.9355 70.1363 65.4393C70.5971 64.9164 70.8009 64.3315 70.7389 63.6934C70.6857 63.0464 70.3844 62.4881 69.8527 62.0184C69.3121 61.5398 68.7272 61.3271 68.0714 61.3537C67.4244 61.3803 66.8661 61.6462 66.423 62.1425C65.971 62.6565 65.7672 63.2237 65.8203 63.8706C65.8735 64.5176 66.166 65.0759 66.7066 65.5545C67.2294 66.0153 67.8232 66.2369 68.4879 66.2191V66.228Z" fill="#4E8616"/>
<path d="M70.5971 16.1648C70.4376 16.4129 70.2692 16.6434 70.0742 16.8561C74.5497 23.0242 77.235 30.5838 77.3324 38.7725C77.4033 45.4902 75.7195 51.8267 72.7152 57.3479H73.6546C76.5969 51.8001 78.2364 45.4724 78.1655 38.7637C78.0769 30.309 75.2675 22.5013 70.606 16.1648H70.5971Z" fill="#4E8616" stroke="#4E8616" stroke-width="0.5" stroke-miterlimit="10"/>
<path d="M63.2414 8.56087C56.506 3.26121 47.9894 0.12396 38.7637 0.221445C17.2815 0.460728 -0.00887451 18.1322 0.221545 39.6144C0.292444 46.0218 1.92311 52.0482 4.73246 57.3478H5.67186C2.80048 52.0659 1.1255 46.0307 1.0546 39.6055C0.824182 18.5841 17.7423 1.28492 38.7726 1.0545C47.7412 0.957016 56.0186 3.98792 62.5944 9.11033C62.7894 8.9065 63.011 8.72039 63.2414 8.56087Z" fill="#4E8616" stroke="#4E8616" stroke-width="0.5" stroke-miterlimit="10"/>
</g>
<defs>
<clipPath id="clip0_5201_36979">
<rect width="78.3782" height="80" fill="white"/>
</clipPath>
</defs>
</svg>
