<svg width="76" height="80" viewBox="0 0 76 80" fill="none" xmlns="http://www.w3.org/2000/svg">
<g clip-path="url(#clip0_5201_36976)">
<path d="M15.072 13.4665L13.488 11.4037L11.08 13.4082L12.664 15.471L12.136 15.9119L8.63199 11.3621L9.15999 10.9212L10.68 12.8925L13.088 10.888L11.568 8.91667L12.096 8.47583L15.6 13.0256L15.072 13.4665Z" fill="#4E8616"/>
<path d="M16.704 12.2105L16.056 5.88074L16.568 5.5813L21.416 9.46568L20.784 9.83166L19.328 8.65886L17.104 9.95643L17.312 11.8612L16.712 12.2105H16.704ZM16.728 6.55447L17.016 9.23279L18.776 8.2097L16.728 6.55447Z" fill="#4E8616"/>
<path d="M19.672 4.65791L19.44 4.0424L23.712 2.28735L23.944 2.90287L22.12 3.65146L23.944 8.44248L23.312 8.70033L21.488 3.90931L19.664 4.65791H19.672Z" fill="#4E8616"/>
<path d="M30.04 0.607195L29.144 5.4398C28.968 6.42961 28.664 6.92036 28.08 7.07008C27.808 7.13662 27.568 7.1283 27.376 7.02849L27.48 6.38802C27.632 6.45456 27.784 6.4712 27.936 6.42961C28.208 6.36307 28.384 6.11354 28.472 5.68933L28.52 5.45644L25.088 1.81327L25.832 1.63028L28.68 4.68289L29.368 0.765232L30.04 0.598877V0.607195Z" fill="#4E8616"/>
<path d="M33.36 6.05524L32.68 6.11347L32.192 0.316004C32.296 0.307686 32.528 0.282733 32.904 0.241144C33.28 0.199555 33.536 0.174602 33.656 0.166285C34.392 0.0997426 34.928 0.224509 35.28 0.540583C35.632 0.848339 35.832 1.25591 35.872 1.77993C35.912 2.28731 35.776 2.73647 35.456 3.11908C35.144 3.51002 34.664 3.72628 34.016 3.7845C33.704 3.80945 33.424 3.82609 33.176 3.82609L33.36 6.05524ZM32.928 0.914881L33.112 3.15235C33.416 3.15235 33.688 3.14403 33.928 3.11908C34.752 3.04422 35.208 2.56179 35.144 1.82983C35.088 1.12282 34.624 0.740208 33.768 0.823386C33.552 0.840021 33.272 0.873292 32.928 0.914881Z" fill="#4E8616"/>
<path d="M36.64 5.73924L39.304 0L39.888 0.0249532L42.04 5.98877L41.312 5.9555L40.672 4.15887L38.12 4.0341L37.328 5.76419L36.64 5.73092V5.73924ZM39.536 0.95654L38.416 3.39364L40.432 3.49345L39.536 0.95654Z" fill="#4E8616"/>
<path d="M46.672 6.92877L47.672 1.8799L45.68 1.4557L45.376 2.51205C44.336 6.06372 43.504 6.38811 42.672 6.08036L42.816 5.38999C43.008 5.45653 43.144 5.46485 43.416 5.23195C43.56 5.10718 43.696 4.92419 43.832 4.68298C44.112 4.20055 44.504 3.18579 44.88 1.79672L45.184 0.673828L48.464 1.37252L47.336 7.07849L46.672 6.93708V6.92877Z" fill="#4E8616"/>
<path d="M51.928 2.50368L51.208 4.53321C51.528 4.63302 51.784 4.70788 51.96 4.77442C53.28 5.28181 53.712 6.16349 53.336 7.21984C52.928 8.36769 51.912 8.71703 50.568 8.20133C50.408 8.14311 50.184 8.05161 49.904 7.93516C49.624 7.81872 49.432 7.74386 49.344 7.71059L51.296 2.25415L51.936 2.50368H51.928ZM50.976 5.15704L50.2 7.31965C50.6 7.49433 50.824 7.58582 50.856 7.60246C51.736 7.94348 52.368 7.74386 52.64 6.97031C52.888 6.27994 52.536 5.70601 51.672 5.3733C51.48 5.29844 51.24 5.22358 50.968 5.15704H50.976Z" fill="#4E8616"/>
<path d="M57.48 11.62L58.72 9.31596L56.032 7.75223L54.792 10.0562L54.2 9.70689L56.936 4.62476L57.528 4.9741L56.344 7.16998L59.032 8.73372L60.216 6.53784L60.808 6.88718L58.072 11.9693L57.48 11.62Z" fill="#4E8616"/>
<path d="M63.144 9.49889C63.912 9.4074 64.616 9.6403 65.256 10.1809C65.896 10.7216 66.248 11.387 66.32 12.1772C66.4 12.9674 66.168 13.7077 65.64 14.3814C65.12 15.0468 64.472 15.4211 63.704 15.5043C62.936 15.5875 62.24 15.3546 61.608 14.8139C60.968 14.2733 60.616 13.6079 60.536 12.8177C60.464 12.0358 60.688 11.2955 61.224 10.6218C61.744 9.96469 62.384 9.59871 63.144 9.50721V9.49889ZM61.24 12.7844C61.288 13.3916 61.544 13.9073 62.008 14.2982C62.496 14.7141 63.032 14.8805 63.6 14.7973C64.176 14.7224 64.672 14.423 65.08 13.9073C65.488 13.3833 65.664 12.826 65.616 12.2105C65.568 11.6033 65.312 11.0876 64.848 10.6966C64.368 10.2891 63.848 10.131 63.264 10.1976C62.68 10.2641 62.184 10.5719 61.776 11.0876C61.376 11.595 61.2 12.1606 61.24 12.7844Z" fill="#4E8616"/>
<path d="M52.36 64.0048H21.52C18.728 64.0048 16.456 61.6426 16.456 58.7397V44.4415C16.456 44.1504 16.68 43.9092 16.968 43.9092H56.92C57.2 43.9092 57.432 44.1421 57.432 44.4415V58.7397C57.432 61.6426 55.16 64.0048 52.368 64.0048H52.36ZM17.472 44.9738V58.748C17.472 61.0687 19.288 62.9568 21.52 62.9568H52.36C54.592 62.9568 56.408 61.0687 56.408 58.748V44.9738H17.472Z" fill="#4E8616" stroke="#4E8616" stroke-width="0.25" stroke-miterlimit="10"/>
<path d="M53.472 44.9739C53.192 44.9739 52.96 44.741 52.96 44.4416V37.0305H20.912V44.4416C20.912 44.7327 20.688 44.9739 20.4 44.9739C20.112 44.9739 19.888 44.741 19.888 44.4416V36.4982C19.888 36.207 20.112 35.9658 20.4 35.9658H53.472C53.752 35.9658 53.984 36.1987 53.984 36.4982V44.4416C53.984 44.7327 53.76 44.9739 53.472 44.9739Z" fill="#4E8616" stroke="#4E8616" stroke-width="0.25" stroke-miterlimit="10"/>
<path d="M20.408 40.9315C20.144 40.9315 19.92 40.7153 19.904 40.4325C19.888 40.1414 20.096 39.8918 20.376 39.8752L53.448 37.7043C53.736 37.6876 53.968 37.9039 53.984 38.195C54 38.4861 53.792 38.7357 53.512 38.7523L20.44 40.9232C20.44 40.9232 20.416 40.9232 20.408 40.9232V40.9315Z" fill="#4E8616" stroke="#4E8616" stroke-width="0.25" stroke-miterlimit="10"/>
<path d="M20.408 43.3603C20.144 43.3603 19.92 43.144 19.904 42.8612C19.888 42.5701 20.096 42.3205 20.376 42.3039L53.448 40.133C53.736 40.1163 53.968 40.3326 53.984 40.6237C54 40.9148 53.792 41.1644 53.512 41.181L20.44 43.3519C20.44 43.3519 20.416 43.3519 20.408 43.3519V43.3603Z" fill="#4E8616" stroke="#4E8616" stroke-width="0.25" stroke-miterlimit="10"/>
<path d="M41.512 36.1157L42.544 32.3727C42.544 32.3727 42.584 32.3727 42.6 32.356L45.648 30.601C45.896 30.4596 45.984 30.1352 45.848 29.8857C45.712 29.6278 45.4 29.5363 45.16 29.6777L42.944 30.9503L44.968 23.6141C45.048 23.3313 44.888 23.0402 44.616 22.957C44.344 22.8738 44.064 23.0402 43.984 23.323L41.96 30.6592L40.736 28.3552C40.6 28.0974 40.288 28.0059 40.048 28.1473C39.8 28.2887 39.712 28.6131 39.848 28.8626L41.536 32.0317C41.536 32.0317 41.56 32.0566 41.576 32.0732L40.464 36.1073H41.52L41.512 36.1157Z" fill="#4E8616" stroke="#4E8616" stroke-width="0.25" stroke-miterlimit="10"/>
<path d="M45.808 17.3092C45.64 17.4007 43.712 18.4488 41.52 20.0957C35.976 15.0218 25.72 12.9923 25.288 12.9091C25.024 12.8592 24.768 13.0339 24.704 13.3001C24.56 13.8906 21.312 27.7979 25.616 34.7432C25.928 35.2506 26.28 35.7081 26.648 36.1156H28.168C27.536 35.5833 26.952 34.9595 26.472 34.1693C22.848 28.3136 25.048 16.5856 25.584 14.0404C27.656 14.4978 35.976 16.5606 40.688 20.7361C38.264 22.6825 35.744 25.2859 34.96 28.1223C34.96 28.1389 34.952 28.1639 34.944 28.1805L33.64 26.0761L34.384 22.5078C34.44 22.225 34.272 21.9422 33.992 21.8757C33.72 21.8091 33.448 21.9921 33.384 22.2832L32.856 24.8201L29.496 19.397C29.344 19.1474 29.032 19.0809 28.792 19.2389C28.552 19.397 28.488 19.7214 28.64 19.9709L32 25.3941L29.56 24.8451C29.288 24.7786 29.016 24.9615 28.952 25.2527C28.896 25.5355 29.064 25.8183 29.344 25.8848L32.776 26.6584L34.608 29.6195C34.608 29.6195 34.664 29.6694 34.688 29.7027C34.648 30.4762 34.736 31.2165 34.92 31.9152L31.808 31.2165C31.536 31.1499 31.264 31.3329 31.2 31.6241C31.144 31.9069 31.312 32.1897 31.592 32.2562L35.32 33.0963C35.816 34.2691 36.528 35.2839 37.264 36.1323H38.696C37.032 34.4521 35.04 31.649 35.928 28.4384C37.216 23.7638 44.056 19.5384 45.848 18.4987C46.84 20.3702 50.48 27.7147 49.192 32.3893C48.704 34.161 47.536 35.3338 46.208 36.124H48.016C48.976 35.2755 49.76 34.1526 50.168 32.6804C51.768 26.8746 46.696 17.8915 46.48 17.5089C46.344 17.2676 46.048 17.1845 45.808 17.3092Z" fill="#4E8616" stroke="#4E8616" stroke-width="0.25" stroke-miterlimit="10"/>
<path d="M68.04 19.8296C71.92 25.8683 74.192 33.1213 74.192 40.9151C74.192 61.8924 57.776 78.9687 37.592 78.9687C17.408 78.9687 1.00001 61.8924 1.00001 40.9151C1.00001 33.1213 3.27201 25.8683 7.15201 19.8296H6.20001C2.40801 25.9099 0.200012 33.1463 0.200012 40.9151C0.200012 62.3582 16.976 79.8005 37.6 79.8005C58.224 79.8005 75 62.3582 75 40.9151C75 33.1463 72.792 25.9099 69 19.8296H68.048H68.04Z" fill="#4E8616" stroke="#4E8616" stroke-width="0.5" stroke-miterlimit="10"/>
</g>
<defs>
<clipPath id="clip0_5201_36976">
<rect width="75.192" height="80" fill="white"/>
</clipPath>
</defs>
</svg>
