<svg width="79" height="80" viewBox="0 0 79 80" fill="none" xmlns="http://www.w3.org/2000/svg">
<g clip-path="url(#clip0_5201_36982)">
<path d="M13.3111 47.5459C13.3111 50.217 15.2921 52.3836 17.7258 52.3836C17.8149 52.3836 17.8891 52.3613 17.9633 52.3316C18.7127 54.7505 19.9666 56.7241 21.7251 58.2378C24.6633 60.7605 29.0558 62.0441 34.7987 62.0441C37.2473 62.0441 39.2803 61.6064 40.9349 60.8941C40.9868 60.9089 41.0462 60.9163 41.1055 60.9163H51.8865C53.4372 60.9534 54.4537 60.6937 55.0621 60.1001C55.6557 59.5214 55.7225 58.7349 55.7225 58.2007C55.7225 57.0655 54.8321 55.8709 53.1256 55.5221L56.3903 45.127C59.5214 45.1122 62.2 43.7766 63.6097 41.4988C66.1547 37.3808 63.9436 31.3856 58.683 28.1432C56.9171 27.0525 54.9954 26.3847 53.0959 26.1769C53.3407 24.0994 53.1033 21.1463 52.4504 18.2007C51.8568 15.5147 50.8625 13.081 49.6457 11.3522C48.3918 9.56407 47.0562 8.71821 45.8765 8.9779C44.1031 9.37115 43.2721 12.2649 43.6283 16.4051C40.8904 13.1404 37.7666 10.8625 36.0082 12.0274C34.9768 12.71 34.6949 14.4092 35.2217 16.8132C35.7262 19.1059 36.8837 21.7102 38.4864 24.1365C39.9332 26.3253 41.892 28.3213 44.3257 30.0723C43.695 31.1333 43.235 32.1053 43.0644 33.1293C41.3727 32.1128 39.2506 31.1704 36.342 30.9998C30.5991 30.6659 25.435 32.3725 21.8067 35.793C19.744 37.7369 18.3194 40.1261 17.6294 42.723C15.2402 42.7824 13.3111 44.9267 13.3111 47.5533V47.5459ZM44.0215 18.7794C44.2886 19.1504 44.5557 19.5362 44.8303 19.9443C46.3884 22.3038 47.5682 24.7672 48.1172 26.7705C46.841 27.2825 45.7652 28.069 44.9638 29.1003C42.6637 27.4383 40.8087 25.5537 39.4435 23.491C37.915 21.176 36.8169 18.7126 36.342 16.5535C35.8598 14.3721 36.2011 13.2665 36.6314 12.9846C37.596 12.3465 40.7271 14.2534 43.9622 18.7052C43.977 18.7349 43.9993 18.7572 44.0215 18.7794ZM51.931 26.0953C51.5006 26.0953 51.0703 26.1102 50.6474 26.1473C50.1502 26.1992 49.668 26.2882 49.2079 26.3995C48.6218 24.2849 47.3901 21.7325 45.7874 19.2914C45.5351 18.913 45.2755 18.5346 45.0083 18.1636C44.2367 13.4298 44.9638 10.3357 46.1213 10.0834C46.7817 9.93505 47.7685 10.6696 48.696 11.9903C49.8238 13.6004 50.7587 15.8857 51.3151 18.4307C51.9458 21.2873 52.1758 24.1365 51.931 26.0879V26.0953ZM18.3046 46.3884C18.3046 42.7082 19.833 39.2432 22.6006 36.6314C25.9915 33.4261 30.8514 31.8382 36.2753 32.1499C39.399 32.3279 41.5507 33.4928 43.2424 34.6058C43.4205 34.7245 43.6505 34.7319 43.836 34.6281C44.0215 34.5242 44.1402 34.3239 44.1328 34.1087C44.1031 32.8622 44.6596 31.7047 45.5055 30.3394C46.5591 28.6329 48.4289 27.557 50.7661 27.3047C53.1627 27.0525 55.7522 27.698 58.0597 29.1226C62.7787 32.0311 64.8191 37.314 62.608 40.8904C61.3393 42.9456 58.9204 44.0734 55.9748 43.9696C55.7225 43.9621 55.4851 44.1254 55.4034 44.3702L51.8049 55.8338C51.7529 56.0044 51.7826 56.1899 51.879 56.3383C51.9829 56.4867 52.1462 56.5758 52.3242 56.5832C53.964 56.6722 54.5576 57.5997 54.5576 58.2007C54.5576 58.7423 54.4611 59.0614 54.246 59.2766C53.8898 59.6253 53.1033 59.7885 51.8939 59.7588H42.9456C45.2309 58.1339 46.4478 55.8783 46.7965 53.8082C47.4791 49.8386 45.4758 46.1881 41.9217 44.9267C41.8549 44.9044 41.7956 44.8896 41.7288 44.8896C41.4914 44.8896 41.2688 45.038 41.1872 45.2754C41.0833 45.5796 41.2391 45.9061 41.5359 46.01C44.5483 47.0784 46.2474 50.2022 45.6613 53.6078C45.0529 57.1248 41.8846 60.8792 34.7913 60.8792C29.3378 60.8792 25.1901 59.6921 22.4745 57.3548C19.7069 54.9731 18.2972 51.278 18.2972 46.3736L18.3046 46.3884ZM14.4611 47.5459C14.4611 45.6538 15.7373 44.0883 17.3623 43.8879C17.2139 44.7041 17.1397 45.5425 17.1397 46.3884C17.1397 48.1469 17.3177 49.757 17.6591 51.2261C15.8857 51.189 14.4611 49.5566 14.4611 47.5459Z" fill="#4E8616"/>
<path d="M57.1397 35.6669C58.033 35.6669 58.7572 34.9427 58.7572 34.0494C58.7572 33.1561 58.033 32.4319 57.1397 32.4319C56.2463 32.4319 55.5222 33.1561 55.5222 34.0494C55.5222 34.9427 56.2463 35.6669 57.1397 35.6669Z" fill="#4E8616"/>
<path d="M10.4248 65.5241H11.3374C5.24578 58.7869 1.52847 49.8758 1.52847 40.0965C1.52847 40.0965 1.52847 40.0965 1.52847 40.0891C1.52847 40.0817 1.52847 40.0891 1.52847 40.0817C1.52847 31.0963 4.68188 22.8455 9.92024 16.3384H7.954C6.0026 18.913 4.37767 21.7103 3.10889 24.7153C1.04619 29.5827 0 34.7543 0 40.0817V40.1039C0 45.4313 1.04619 50.6029 3.10147 55.4777C4.66704 59.1876 6.77425 62.5858 9.37117 65.6428C9.69764 65.576 10.0464 65.5315 10.4174 65.5315L10.4248 65.5241Z" fill="#4E8616"/>
<path d="M77.0915 40.1039C77.0915 49.8758 73.3667 58.7943 67.2825 65.5315H69.3378C71.8902 62.5042 73.9677 59.1431 75.5185 55.4777C77.5812 50.6103 78.6199 45.4387 78.6199 40.1039C78.6199 40.1039 78.6199 40.1039 78.6199 40.0965C78.6199 40.0891 78.6199 40.0965 78.6199 40.0891C78.6199 34.7617 77.5738 29.5901 75.5185 24.7153C74.2497 21.7177 72.6248 18.9205 70.6734 16.3384H68.7071C73.9455 22.8455 77.0989 31.0963 77.0989 40.0817V40.1039H77.0915Z" fill="#4E8616"/>
<path d="M11.5377 10.5286L12.903 12.1165L14.7357 10.5435L13.3704 8.95564L13.8675 8.53271L17.1248 12.3316L16.6277 12.7546L15.0992 10.9738L13.2665 12.5468L14.795 14.3276L14.3053 14.7505L11.048 10.9516L11.5377 10.5286Z" fill="#4E8616"/>
<path d="M19.0243 8.20624L17.3994 9.28211L18.3936 10.7883L20.204 9.59374L20.5008 10.0463L18.1562 11.5971L15.396 7.42717L17.6516 5.93579L17.9484 6.3884L16.2345 7.52362L17.1026 8.84434L18.7275 7.77589L19.0243 8.22108V8.20624Z" fill="#4E8616"/>
<path d="M22.0664 4.23671L20.6789 4.85998L20.4563 4.35543L23.8323 2.8418L24.0549 3.34634L22.66 3.9696L24.4778 8.02822L23.8842 8.29533L22.0664 4.23671Z" fill="#4E8616"/>
<path d="M28.3138 4.13267L26.4663 4.73367L27.0228 6.44764L29.0855 5.77986L29.2561 6.29183L26.585 7.15994L25.0417 2.40386L27.609 1.56543L27.7722 2.07739L25.8208 2.71549L26.3105 4.22171L28.158 3.62071L28.3213 4.12525L28.3138 4.13267Z" fill="#4E8616"/>
<path d="M33.6264 5.18635C33.4187 5.34958 32.9735 5.55734 32.3799 5.68347C30.9998 5.958 29.783 5.29765 29.4565 3.68755C29.1449 2.15166 29.9833 0.905139 31.4969 0.593509C32.1054 0.467373 32.5209 0.526731 32.7064 0.578669L32.6544 1.12773C32.3873 1.06095 32.0312 1.0387 31.6231 1.12773C30.473 1.35775 29.8572 2.24812 30.1169 3.53174C30.3617 4.73374 31.2076 5.36442 32.3947 5.12699C32.7806 5.04537 33.159 4.88956 33.389 4.7189L33.619 5.19377L33.6264 5.18635Z" fill="#4E8616"/>
<path d="M35.511 0.719527L33.9974 0.830824L33.9603 0.28176L37.6479 0.0146484L37.685 0.563712L36.164 0.675008L36.483 5.11203L35.8301 5.15655L35.511 0.719527Z" fill="#4E8616"/>
<path d="M39.629 0.0370033L39.5103 2.14422C39.4658 2.93814 39.4138 3.59107 39.3322 4.25143H39.347C39.629 3.75431 39.9703 3.23493 40.3636 2.65618L42.122 0.177979L42.7676 0.215078L42.4856 5.20859L41.8772 5.17149L41.9959 3.04201C42.0404 2.23326 42.0775 1.63967 42.1666 1.01641H42.1443C41.8698 1.54322 41.4914 2.0997 41.1204 2.64134L39.4212 5.03793L38.7312 5.00083L39.0132 0.00732422L39.6216 0.0444231L39.629 0.0370033Z" fill="#4E8616"/>
<path d="M44.6745 0.53418C44.9935 0.53418 45.4016 0.571279 45.9061 0.667736C46.5368 0.786452 46.9672 1.01646 47.2046 1.33552C47.4272 1.61747 47.5236 2.00329 47.442 2.44106C47.3604 2.88625 47.1601 3.21272 46.8633 3.42047C46.4626 3.71726 45.8765 3.79146 45.2606 3.68016C45.0677 3.64306 44.897 3.60597 44.7561 3.53919L44.3851 5.50543L43.747 5.38671L44.6596 0.53418H44.6745ZM44.8599 3.0198C44.9935 3.07916 45.1642 3.1311 45.3719 3.1682C46.1361 3.30917 46.6704 3.02722 46.8039 2.35202C46.9226 1.7065 46.522 1.30584 45.8245 1.17228C45.55 1.12034 45.3348 1.1055 45.2161 1.11292L44.8599 3.0198Z" fill="#4E8616"/>
<path d="M49.3489 1.4765L49.6754 3.80631C49.7125 4.12536 49.7347 4.43699 49.7644 4.75604H49.7792C49.9425 4.54087 50.1206 4.28859 50.3432 3.98438L51.7084 2.19622L52.3613 2.39655L50.6028 4.54087C50.1428 5.09735 49.6234 5.73545 49.1486 6.08418C48.7182 6.38097 48.3101 6.47001 47.8798 6.33645C47.724 6.29193 47.6127 6.23999 47.5459 6.18806L47.7611 5.70577C47.8056 5.73545 47.8724 5.76513 47.9837 5.79481C48.4808 5.9432 48.9186 5.55738 49.1708 5.26058C49.2524 5.17155 49.2599 5.09735 49.2376 4.96379L48.6366 1.25391L49.3415 1.46908L49.3489 1.4765Z" fill="#4E8616"/>
<path d="M54.8544 6.35126L53.0736 5.57961L52.3539 7.23422L54.3424 8.09491L54.1272 8.59204L51.5526 7.47165L53.5411 2.88623L56.0193 3.9621L55.8041 4.45922L53.9195 3.64305L53.2888 5.0899L55.0696 5.86156L54.8544 6.35126Z" fill="#4E8616"/>
<path d="M58.0968 5.68334L56.7761 4.92653L57.0506 4.45166L60.2634 6.29176L59.9889 6.76663L58.6607 6.00981L56.4496 9.87551L55.8857 9.54904L58.0968 5.68334Z" fill="#4E8616"/>
<path d="M61.0944 12.8288C60.8347 12.7843 60.3821 12.5988 59.885 12.2426C58.7423 11.4116 58.4159 10.0686 59.3804 8.74049C60.3005 7.4717 61.7844 7.24169 63.0384 8.15432C63.5429 8.51789 63.7804 8.8592 63.8694 9.02986L63.4316 9.36375C63.3055 9.12631 63.0755 8.84436 62.7416 8.59951C61.7919 7.90947 60.7234 8.05787 59.9518 9.11889C59.2321 10.1057 59.3359 11.1593 60.3228 11.8716C60.6418 12.1016 61.0128 12.2723 61.2947 12.3242L61.1018 12.8139L61.0944 12.8288Z" fill="#4E8616"/>
<path d="M61.4876 13.3705C61.636 13.3259 61.7919 13.2592 61.9477 13.1775C62.4967 12.9104 63.0755 12.4949 63.6468 12.4801C63.8175 12.4801 63.9807 12.5098 64.1217 12.584L64.1365 12.5691C63.7581 12.072 63.7062 11.4116 64.181 10.9145C64.4778 10.5955 64.8488 10.4619 65.2124 10.4916C65.613 10.5213 66.0582 10.7587 66.5183 11.1965C66.8225 11.4858 67.1267 11.8197 67.3122 12.0942L63.9213 15.6854L63.4539 15.2402L64.9453 13.6672L64.5965 13.3408C64.3665 13.1256 64.1588 13.0143 63.9065 13.0217C63.4168 13.044 62.8158 13.4817 62.3558 13.7043C62.2296 13.7637 62.1332 13.8082 61.9848 13.8602L61.4802 13.3853L61.4876 13.3705ZM66.5331 11.9681C66.4663 11.8791 66.3402 11.7084 66.1324 11.5081C65.665 11.0703 65.1085 10.8774 64.6336 11.3745C64.2181 11.8123 64.3665 12.4356 64.8859 12.9178C65.0417 13.0662 65.1975 13.2072 65.294 13.2888L66.5405 11.9681H66.5331Z" fill="#4E8616"/>
<path d="M18.3491 67.8241L17.1026 69.5084L19.0465 70.9478L20.2931 69.2635L20.8199 69.6493L17.8371 73.6708L17.3103 73.285L18.7052 71.4004L16.7613 69.961L15.3663 71.8456L14.847 71.4597L17.8297 67.4382L18.3491 67.8241Z" fill="#4E8616"/>
<path d="M20.8792 73.6634L19.6772 74.8061L19.0911 74.487L22.9568 70.8884L23.6394 71.2594L22.7787 76.4681L22.1703 76.1416L22.4448 74.5019L20.8866 73.6634H20.8792ZM22.5635 73.9899L22.8158 72.4911C22.8751 72.1498 22.9493 71.853 23.0161 71.5636H23.0013C22.7935 71.7788 22.5784 72.0088 22.3483 72.2314L21.2354 73.2702L22.5635 73.9825V73.9899Z" fill="#4E8616"/>
<path d="M27.8019 73.1366L28.6848 75.6964L28.8703 75.7484L29.4788 73.6189L30.0872 73.7895L29.4788 75.919L29.6717 75.971L31.7641 74.2644L32.4912 74.4722L30.154 76.1936C30.8885 76.4904 31.0592 77.0468 31.0963 77.7962C31.126 78.3008 31.1111 78.7979 31.1853 79.295L30.5472 79.1169C30.473 78.746 30.4953 78.2563 30.473 77.8778C30.4433 77.1581 30.3172 76.6684 29.5455 76.4458L29.3378 76.3865L28.7071 78.5901L28.0987 78.4195L28.7294 76.2158L28.5142 76.1565C27.7425 75.9339 27.379 76.29 26.9635 76.8762C26.7483 77.1878 26.5034 77.6182 26.2586 77.8927L25.6279 77.7146C25.9618 77.3288 26.2066 76.8984 26.496 76.4978C26.9338 75.8893 27.3715 75.5035 28.1506 75.6297L27.0822 72.9363L27.8093 73.144L27.8019 73.1366Z" fill="#4E8616"/>
<path d="M33.8119 74.6057L33.5745 76.6981C33.4854 77.4846 33.3964 78.1376 33.2777 78.7905H33.2925C33.6042 78.3082 33.9751 77.8111 34.3981 77.262L36.2975 74.8877L36.9356 74.9619L36.3717 79.9331L35.7707 79.8664L36.0082 77.7517C36.0972 76.9504 36.1714 76.3568 36.2975 75.741H36.2753C35.9711 76.2529 35.563 76.7872 35.1623 77.2991L33.3296 79.5918L32.647 79.5176L33.2109 74.5464L33.8193 74.6132L33.8119 74.6057Z" fill="#4E8616"/>
<path d="M38.1228 75.0435C38.4047 74.9767 38.8499 74.9173 39.3025 74.9099C39.948 74.8951 40.3635 74.9915 40.6826 75.2364C40.9497 75.4219 41.1129 75.7187 41.1204 76.1119C41.1352 76.5942 40.8236 77.0246 40.3042 77.2323V77.2472C40.7791 77.351 41.3504 77.7294 41.3652 78.4714C41.3801 78.9018 41.2168 79.2357 40.972 79.4805C40.6307 79.807 40.0742 79.9702 39.258 79.9925C38.8128 80.0073 38.4715 79.985 38.2563 79.9628L38.1302 75.0435H38.1228ZM38.8202 77.0765L39.4064 77.0617C40.089 77.0394 40.4823 76.6758 40.4674 76.1935C40.4526 75.6074 40 75.3922 39.347 75.407C39.0502 75.407 38.8796 75.4367 38.7757 75.4664L38.8202 77.0765ZM38.8796 79.4731C39.0057 79.4953 39.1912 79.4953 39.4212 79.4879C40.089 79.4731 40.6974 79.206 40.6826 78.4788C40.6678 77.7962 40.0742 77.5291 39.3693 77.5514L38.8351 77.5662L38.887 79.4731H38.8796Z" fill="#4E8616"/>
<path d="M46.7223 76.5423C47.0117 78.2415 46.1287 79.3099 44.8748 79.5251C43.5763 79.7403 42.4856 78.887 42.2333 77.3956C41.9662 75.83 42.7676 74.6429 44.0883 74.4203C45.4313 74.1903 46.4775 75.0732 46.7223 76.5423ZM42.9085 77.2695C43.0866 78.3231 43.8138 79.1689 44.8154 78.9983C45.8245 78.8276 46.24 77.8037 46.0471 76.6833C45.8839 75.7039 45.1938 74.769 44.1328 74.9471C43.0792 75.1252 42.7156 76.1862 42.9011 77.2695H42.9085Z" fill="#4E8616"/>
<path d="M48.1766 74.1011L46.7223 74.5537L46.5591 74.0269L50.0909 72.9214L50.2541 73.4482L48.7924 73.9082L50.128 78.1597L49.5047 78.3527L48.1691 74.1011H48.1766Z" fill="#4E8616"/>
<path d="M51.2409 72.4392L52.1239 74.3387L54.3201 73.3222L53.4446 71.4227L54.0382 71.1482L56.138 75.6817L55.5444 75.9562L54.5576 73.8267L52.3613 74.8432L53.3482 76.9727L52.762 77.2472L50.6622 72.7063L51.2484 72.4318L51.2409 72.4392Z" fill="#4E8616"/>
<path d="M55.5592 70.2578L56.6054 71.8085C56.7167 71.7047 56.9393 71.534 57.0729 71.445C57.9262 70.8662 58.9204 70.7401 59.5437 71.6601C59.8034 72.0386 59.8701 72.4095 59.8182 72.7583C59.7217 73.3444 59.232 73.8638 58.6681 74.2422C58.2971 74.4945 58.0004 74.6577 57.8074 74.7542L55.0176 70.6214L55.5518 70.2652L55.5592 70.2578ZM58.082 73.99C58.2081 73.938 58.3491 73.8564 58.5346 73.7303C59.1282 73.3296 59.4324 72.6841 59.0094 72.0608C58.5717 71.4153 57.852 71.5414 57.3029 71.9198C57.11 72.0534 56.9616 72.1795 56.9022 72.2389L58.0894 73.9974L58.082 73.99ZM58.6533 68.1729L61.4506 72.3131L60.9089 72.6767L58.1117 68.5364L58.6533 68.1729Z" fill="#4E8616"/>
<path d="M64.9453 69.2338L63.7284 68.8554C63.2536 68.7218 62.9419 68.6254 62.6303 68.5215H62.6229C62.7119 68.8405 62.7935 69.1299 62.8974 69.627L63.2016 70.8439L62.66 71.3484L62.0664 68.4547L59.3137 67.6311L59.8627 67.1191L61.1463 67.5347C61.5025 67.646 61.777 67.7424 62.059 67.8463L62.0738 67.8314C61.9774 67.5198 61.9106 67.2601 61.829 66.904L61.5396 65.5758L62.0887 65.0713L62.6229 67.8908L65.5092 68.7218L64.9601 69.2264L64.9453 69.2338Z" fill="#4E8616"/>
</g>
<defs>
<clipPath id="clip0_5201_36982">
<rect width="78.6125" height="80" fill="white"/>
</clipPath>
</defs>
</svg>
