<svg width="77" height="80" viewBox="0 0 77 80" fill="none" xmlns="http://www.w3.org/2000/svg">
<g clip-path="url(#clip0_5201_36973)">
<path d="M39.9739 39.5482C50.9668 39.6611 49.5329 26.5132 49.5329 26.5132C49.5329 26.5132 45.7615 26.7652 42.5809 29.1202" stroke="#4E8616" stroke-width="2" stroke-linecap="round" stroke-linejoin="round"/>
<path d="M39.1049 37.8102C42.3376 24.0366 29.5633 26.826 26.939 22.1682C26.7999 22.9938 20.8733 38.9225 34.7599 39.5482" stroke="#4E8616" stroke-width="2" stroke-linecap="round" stroke-linejoin="round"/>
<path d="M33.0219 31.7273C33.0219 31.7273 41.7119 36.9413 39.9739 45.6313" stroke="#4E8616" stroke-width="2" stroke-linecap="round" stroke-linejoin="round"/>
<path d="M35.9592 10.1326C26.7738 11.1494 19.3787 18.5532 18.3706 27.7472C17.5711 35.0294 20.6908 41.6338 25.8875 45.7181C28.7812 47.9949 30.4149 51.5056 30.4149 55.1815V55.2076H46.0569V55.1815C46.0569 51.4535 47.7775 47.9601 50.6974 45.6312C55.2857 41.9727 58.2229 36.3329 58.2229 29.9979C58.2229 18.2056 48.0209 8.80305 35.9592 10.1413V10.1326Z" stroke="#4E8616" stroke-width="2" stroke-linecap="round" stroke-linejoin="round"/>
<path d="M31.2839 59.5352H45.1879" stroke="#4E8616" stroke-width="2" stroke-linecap="round" stroke-linejoin="round"/>
<path d="M33.8909 63.0112L34.7599 63.8802H41.7119L42.5809 63.0112" stroke="#4E8616" stroke-width="2" stroke-linecap="round" stroke-linejoin="round"/>
<path d="M17.6841 66.3305L12.9394 68.3292C11.9661 68.7464 11.3578 68.7637 10.8799 68.3119C10.6539 68.1033 10.5236 67.8774 10.4888 67.6514L11.1058 67.3733C11.1405 67.5471 11.2188 67.6949 11.3404 67.8078C11.5664 68.0164 11.8792 68.0251 12.305 67.8687L12.5396 67.7731L13.6259 62.5591L14.2342 63.1239L13.2957 67.4689L17.1193 65.8091L17.6667 66.3218L17.6841 66.3305Z" fill="#4E8616"/>
<path d="M18.8399 74.3862L20.3259 72.066L17.5103 70.2672L16.0243 72.5874L15.3987 72.1876L18.6748 67.0605L19.3005 67.4603L17.884 69.6762L20.6995 71.4751L22.116 69.2591L22.7417 69.6589L19.4656 74.7859L18.8399 74.3862Z" fill="#4E8616"/>
<path d="M22.9068 76.4805L22.2985 76.2458L24.5057 70.5713L25.1923 70.8407L23.4282 75.3769L28.6422 72.1789L29.2505 72.4136L27.0432 78.0881L26.3567 77.8187L28.1208 73.2826L22.9068 76.4805Z" fill="#4E8616"/>
<path d="M30.0587 78.8876L31.1797 72.9089L31.9096 73.048L30.7886 79.0267L30.0587 78.8876ZM35.5594 73.7345L32.3702 76.046L34.5774 79.7393L33.6476 79.5655L31.5273 75.9417L34.6904 73.5694L35.5681 73.7345H35.5594Z" fill="#4E8616"/>
<path d="M36.0287 79.9044L38.7486 73.8301H39.383L41.8944 80L41.1036 79.9826L40.3563 78.1316L37.5842 78.0882L36.776 79.9131H36.0287V79.9044ZM39.018 74.8207L37.8796 77.4017L40.0695 77.4364L39.018 74.8207Z" fill="#4E8616"/>
<path d="M47.7775 79.1831L46.9172 73.8648L44.736 74.2211L44.8143 75.3682C45.0836 79.2352 44.3537 79.8696 43.3891 79.8957L43.2761 79.1657C43.4934 79.157 43.6411 79.1136 43.8323 78.7747C43.9366 78.6009 44.0061 78.3662 44.0495 78.0795C44.1538 77.4972 44.1799 76.3588 44.0408 74.8555L43.9279 73.6389L47.5255 73.0566L48.4988 79.0614L47.7688 79.1831H47.7775Z" fill="#4E8616"/>
<path d="M50.202 72.2744L50.9407 74.4121C51.2796 74.2644 51.5403 74.1601 51.7315 74.0906C53.174 73.5953 54.1212 73.995 54.5123 75.116C54.9294 76.324 54.3124 77.3059 52.8438 77.8186C52.67 77.8795 52.4267 77.9664 52.1138 78.0619C51.801 78.1575 51.5924 78.2357 51.4968 78.2705L49.5068 72.5264L50.202 72.2831V72.2744ZM51.1753 75.0726L51.9661 77.3581C52.418 77.219 52.6613 77.1408 52.7048 77.1321C53.6693 76.8019 54.0691 76.2023 53.7823 75.3941C53.5303 74.6642 52.8612 74.4469 51.914 74.7684C51.6967 74.838 51.4534 74.9509 51.1753 75.0813V75.0726Z" fill="#4E8616"/>
<path d="M61.1427 73.9517L59.8045 71.5445L56.8759 73.1696L58.2142 75.5767L57.5711 75.933L54.6078 70.6147L55.2509 70.2584L56.537 72.5613L59.4656 70.9362L58.1881 68.6334L58.8312 68.2771L61.7945 73.5954L61.1514 73.9517H61.1427Z" fill="#4E8616"/>
<path d="M61.2991 67.5298C61.3513 66.6955 61.7249 65.983 62.4028 65.4007C63.0806 64.8185 63.8366 64.5665 64.6622 64.636C65.4877 64.6968 66.209 65.0792 66.7999 65.7744C67.3821 66.4522 67.6428 67.2169 67.582 68.0599C67.5125 68.8941 67.1475 69.598 66.4697 70.1715C65.7919 70.7538 65.0358 71.0058 64.2103 70.945C63.3934 70.8754 62.6722 70.4931 62.0812 69.7979C61.5077 69.1201 61.2557 68.3727 61.3078 67.5385L61.2991 67.5298ZM64.3059 70.1715C64.9402 70.2324 65.5138 70.0499 66.0178 69.6328C66.5392 69.1896 66.8086 68.6508 66.8347 68.0251C66.8694 67.3907 66.6522 66.8085 66.2003 66.2784C65.7397 65.7396 65.2009 65.4529 64.5666 65.392C63.9322 65.3312 63.3587 65.5137 62.8546 65.9308C62.3419 66.3653 62.0725 66.8954 62.0378 67.5298C62.003 68.1642 62.2116 68.7551 62.6722 69.2852C63.1153 69.8066 63.6628 70.102 64.3059 70.1715Z" fill="#4E8616"/>
<path d="M69.016 58.7096C72.9526 52.8178 75.2554 45.7441 75.2554 38.1404C75.2554 17.6755 58.6054 1.02545 38.1405 1.02545C17.6756 1.02545 1.02555 17.6755 1.02555 38.1404C1.02555 45.7441 3.32839 52.8178 7.26495 58.7096H6.30037C2.45939 52.783 0.217377 45.718 0.217377 38.1404C0.217377 17.2323 17.2324 0.217285 38.1405 0.217285C59.0486 0.217285 76.0636 17.2323 76.0636 38.1404C76.0636 45.718 73.8215 52.7743 69.9806 58.7096H69.016Z" fill="#4E8616" stroke="#4E8616" stroke-width="0.5" stroke-miterlimit="10"/>
</g>
<defs>
<clipPath id="clip0_5201_36973">
<rect width="76.2894" height="80" fill="white"/>
</clipPath>
</defs>
</svg>
