<svg width="40" height="40" viewBox="0 0 40 40" fill="none" xmlns="http://www.w3.org/2000/svg">
<rect width="40" height="40" rx="20" fill="white"/>
<path fill-rule="evenodd" clip-rule="evenodd" d="M27.071 14.3431C27.4615 13.9526 27.4615 13.3194 27.071 12.9289C26.6805 12.5384 26.0473 12.5384 25.6568 12.9289L19.9999 18.5857L14.3431 12.9289C13.9526 12.5384 13.3194 12.5384 12.9289 12.9289C12.5384 13.3194 12.5384 13.9526 12.9289 14.3431L18.5857 19.9999L12.9289 25.6568C12.5384 26.0473 12.5384 26.6805 12.9289 27.071C13.3194 27.4615 13.9526 27.4615 14.3431 27.071L20 21.4142L25.6568 27.071C26.0473 27.4615 26.6805 27.4615 27.071 27.071C27.4615 26.6805 27.4615 26.0473 27.071 25.6568L21.4142 19.9999L27.071 14.3431Z" fill="#202638" fill-opacity="0.6"/>
</svg>
