<svg width="36" height="36" viewBox="0 0 36 36" fill="none" xmlns="http://www.w3.org/2000/svg">
<rect width="36" height="36" rx="18" fill="#202638" fill-opacity="0.6"/>
<path fill-rule="evenodd" clip-rule="evenodd" d="M25.0713 12.3431C25.4618 11.9526 25.4618 11.3194 25.0713 10.9289C24.6807 10.5384 24.0476 10.5384 23.657 10.9289L18.0002 16.5857L12.3433 10.9289C11.9528 10.5384 11.3196 10.5384 10.9291 10.9289C10.5386 11.3194 10.5386 11.9526 10.9291 12.3431L16.586 17.9999L10.9291 23.6568C10.5386 24.0473 10.5386 24.6805 10.9291 25.071C11.3197 25.4615 11.9528 25.4615 12.3433 25.071L18.0002 19.4142L23.657 25.071C24.0476 25.4615 24.6807 25.4615 25.0713 25.071C25.4618 24.6805 25.4618 24.0473 25.0713 23.6568L19.4144 17.9999L25.0713 12.3431Z" fill="white"/>
</svg>
