<svg width="24" height="24" viewBox="0 0 24 24" fill="none" xmlns="http://www.w3.org/2000/svg">
<path fill-rule="evenodd" clip-rule="evenodd" d="M12.636 18.364C12.2455 17.9734 12.2455 17.3403 12.636 16.9497L16.5147 13.0711L5.41421 13.0711C4.86193 13.0711 4.41421 12.6234 4.41421 12.0711C4.41421 11.5188 4.86193 11.0711 5.41421 11.0711L16.6569 11.0711L12.636 7.05025C12.2455 6.65973 12.2455 6.02656 12.636 5.63604C13.0266 5.24551 13.6597 5.24551 14.0503 5.63604L19.7044 11.2902C19.7053 11.2911 19.7062 11.292 19.7071 11.2929C20.0976 11.6834 20.0976 12.3166 19.7071 12.7071L14.0503 18.364C13.6597 18.7545 13.0266 18.7545 12.636 18.364Z" fill="#202638" fill-opacity="0.6"/>
</svg>
