<svg width="40" height="40" viewBox="0 0 40 40" fill="none" xmlns="http://www.w3.org/2000/svg">
<g clip-path="url(#clip0_2250_1131)">
<path d="M13.8196 29.6275C13.4794 31.0963 13.1527 33.1213 13.7629 34.5097C14.0138 34.821 14.4444 35.2459 14.875 34.821C15.7361 33.9712 16.6688 31.9637 17.0515 30.4808C17.2642 29.6834 18.1289 26.4379 18.1289 26.4379C18.6817 27.5011 20.326 28.3964 22.0696 28.3964C27.2577 28.3964 31 23.682 31 17.8205C31 12.1968 26.3505 8 20.3827 8C12.9407 8 9 12.9242 9 18.2821C9 20.7862 10.3466 23.8779 12.5013 24.8711C12.8273 25.025 13.0116 24.955 13.0825 24.6473C13.1392 24.4095 13.4369 23.2483 13.5644 22.7168C13.607 22.5489 13.5928 22.395 13.451 22.2271C12.7423 21.3738 12.1753 19.807 12.1753 18.3521C12.1753 14.603 15.0528 10.9797 19.9575 10.9797C24.1959 10.9797 27.1585 13.8196 27.1585 17.8904C27.1585 22.4789 24.8054 25.6685 21.7436 25.6685C20.0567 25.6685 18.7809 24.2836 19.192 22.5908C19.6881 20.5624 20.6237 18.3801 20.6237 16.9252C20.6237 15.6242 19.9149 14.533 18.4407 14.533C16.7113 14.533 15.3222 16.2957 15.3222 18.6599C15.3222 20.1567 15.8325 21.1779 15.8325 21.1779C15.8325 21.1779 14.1314 28.2985 13.8196 29.6275Z" fill="#4E8616"/>
</g>
<defs>
<clipPath id="clip0_2250_1131">
<rect width="40" height="40" fill="white"/>
</clipPath>
</defs>
</svg>
