<svg width="16" height="16" viewBox="0 0 16 16" fill="none" xmlns="http://www.w3.org/2000/svg">
<path fill-rule="evenodd" clip-rule="evenodd" d="M11.2426 2.75736C8.89949 0.414214 5.10051 0.414214 2.75736 2.75736C0.414214 5.1005 0.414213 8.89949 2.75736 11.2426C4.85958 13.3449 8.13366 13.561 10.4769 11.8911L13.3639 14.7782C13.7545 15.1687 14.3876 15.1687 14.7782 14.7782C15.1687 14.3876 15.1687 13.7545 14.7782 13.364L11.8911 10.4769C13.561 8.13367 13.3449 4.85959 11.2426 2.75736ZM9.83139 9.82546C11.3905 8.26312 11.3895 5.73268 9.82843 4.17157C8.26633 2.60948 5.73367 2.60948 4.17157 4.17157C2.60948 5.73367 2.60948 8.26633 4.17157 9.82843C5.73268 11.3895 8.26312 11.3905 9.82545 9.8314C9.82644 9.83041 9.82743 9.82941 9.82842 9.82842C9.82941 9.82743 9.8304 9.82644 9.83139 9.82546Z" fill="#202638" fill-opacity="0.6"/>
</svg>
