<svg width="16" height="16" viewBox="0 0 16 16" fill="none" xmlns="http://www.w3.org/2000/svg">
<path fill-rule="evenodd" clip-rule="evenodd" d="M1 4C1 3.44772 1.44772 3 2 3H14C14.5523 3 15 3.44772 15 4C15 4.55228 14.5523 5 14 5H2C1.44772 5 1 4.55228 1 4ZM1 8C1 7.44772 1.44772 7 2 7H9C9.55228 7 10 7.44772 10 8C10 8.55228 9.55228 9 9 9H2C1.44772 9 1 8.55228 1 8ZM2 11C1.44772 11 1 11.4477 1 12C1 12.5523 1.44772 13 2 13H5C5.55228 13 6 12.5523 6 12C6 11.4477 5.55228 11 5 11H2Z" fill="#171A23" fill-opacity="0.8"/>
</svg>
