<svg width="0" height="0" class="hidden">
  <symbol xmlns="http://www.w3.org/2000/svg" viewBox="0 0 16 16" id="location">
    <path d="M12.9667 3.75999L9.98921 12.6128C9.95464 12.7249 9.8852 12.8229 9.79105 12.8926C9.6969 12.9622 9.58299 12.9998 9.46597 12.9999C9.34965 13.0018 9.2355 12.9682 9.13869 12.9035C9.04189 12.8389 8.96703 12.7462 8.92405 12.6378L7.67823 9.36014C7.58792 9.12197 7.44863 8.90552 7.26941 8.72482C7.09019 8.54412 6.87506 8.40322 6.63798 8.31128L3.36773 7.06264C3.25741 7.02212 3.16258 6.94789 3.09663 6.85043C3.03069 6.75296 2.99696 6.6372 3.00022 6.51948C3.00031 6.4022 3.03785 6.28803 3.10734 6.19366C3.17683 6.0993 3.27463 6.0297 3.38642 5.99505L12.2192 3.04202C12.3206 3.00059 12.4318 2.9895 12.5394 3.01007C12.647 3.03064 12.7463 3.082 12.8254 3.15795C12.9044 3.23389 12.9599 3.33116 12.9849 3.438C13.01 3.54484 13.0037 3.65668 12.9667 3.75999Z"></path>
  </symbol>
  <symbol xmlns="http://www.w3.org/2000/svg" viewBox="0 0 24 24" id="heart">
    <path d="M7.72849 3.01331C9.35006 3.12488 10.9657 3.93552 12 5.27138C13.0343 3.93552 14.6499 3.12488 16.2715 3.01331C18.4037 2.8666 20.5898 3.92612 21.5682 6.54083C23.0419 10.4795 20.4741 14.1063 17.9264 16.5549C16.6182 17.8123 15.2334 18.8412 14.1804 19.5538C13.6526 19.911 13.2051 20.1908 12.8881 20.3821C12.7295 20.4778 12.6034 20.5515 12.516 20.6018C12.4722 20.6269 12.4382 20.6462 12.4145 20.6595L12.387 20.6749L12.3793 20.6792L12.3757 20.6812C12.2587 20.7456 12.1294 20.7778 12 20.7778C11.8706 20.7778 11.7412 20.7456 11.6243 20.6812L12 20.7778L11.623 20.6805L11.6207 20.6792L11.613 20.6749L11.5855 20.6595C11.5618 20.6462 11.5278 20.6269 11.484 20.6018C11.3966 20.5515 11.2705 20.4778 11.1119 20.3821C10.7949 20.1908 10.3474 19.911 9.81964 19.5538C8.76663 18.8412 7.38175 17.8123 6.07361 16.5549C3.52594 14.1063 0.958102 10.4795 2.43183 6.54083C3.41019 3.92612 5.59628 2.8666 7.72849 3.01331Z"></path>
  </symbol>
  <symbol xmlns="http://www.w3.org/2000/svg" viewBox="0 0 17 16" id="menu">
    <path clip-rule="evenodd" d="M1.85712 4C1.85712 3.44772 2.30483 3 2.85712 3H9.85712C10.4094 3 10.8571 3.44772 10.8571 4C10.8571 4.55228 10.4094 5 9.85712 5H2.85712C2.30483 5 1.85712 4.55228 1.85712 4ZM1.85712 8C1.85712 7.44772 2.30483 7 2.85712 7H14.8571C15.4094 7 15.8571 7.44772 15.8571 8C15.8571 8.55228 15.4094 9 14.8571 9H2.85712C2.30483 9 1.85712 8.55228 1.85712 8ZM2.85712 11C2.30483 11 1.85712 11.4477 1.85712 12C1.85712 12.5523 2.30483 13 2.85712 13H14.8571C15.4094 13 15.8571 12.5523 15.8571 12C15.8571 11.4477 15.4094 11 14.8571 11H2.85712Z"></path>
  </symbol>
  <symbol xmlns="http://www.w3.org/2000/svg" viewBox="0 0 16 16" id="search">
    <path fill-rule="evenodd" clip-rule="evenodd" d="M11.2426 2.75736C8.89949 0.414214 5.10051 0.414214 2.75736 2.75736C0.414214 5.1005 0.414213 8.89949 2.75736 11.2426C4.85958 13.3449 8.13366 13.561 10.4769 11.8911L13.3639 14.7782C13.7545 15.1687 14.3876 15.1687 14.7782 14.7782C15.1687 14.3876 15.1687 13.7545 14.7782 13.364L11.8911 10.4769C13.561 8.13367 13.3449 4.85959 11.2426 2.75736ZM9.83139 9.82546C11.3905 8.26312 11.3895 5.73268 9.82843 4.17157C8.26633 2.60948 5.73367 2.60948 4.17157 4.17157C2.60948 5.73367 2.60948 8.26633 4.17157 9.82843C5.73268 11.3895 8.26312 11.3905 9.82545 9.8314C9.82644 9.83041 9.82743 9.82941 9.82842 9.82842C9.82941 9.82743 9.8304 9.82644 9.83139 9.82546Z"></path>
  </symbol>
  <symbol xmlns="http://www.w3.org/2000/svg" viewBox="0 0 24 24" id="user">
    <path d="M19.6515 19.4054C20.2043 19.2902 20.5336 18.7117 20.2589 18.2183C19.6533 17.1307 18.6993 16.1749 17.4788 15.4465C15.907 14.5085 13.9812 14 12 14C10.0188 14 8.09292 14.5085 6.52112 15.4465C5.30069 16.1749 4.34666 17.1307 3.74108 18.2183C3.46638 18.7117 3.79562 19.2902 4.34843 19.4054C9.39524 20.4572 14.6047 20.4572 19.6515 19.4054Z"></path>
    <circle cx="12" cy="8" r="5"></circle>
  </symbol>
  <symbol xmlns="http://www.w3.org/2000/svg" viewBox="0 0 24 24" id="bag">
    <path fill-rule="evenodd" clip-rule="evenodd" d="M7.00003 7C7.00003 4.23858 9.23861 2 12 2C14.7615 2 17 4.23858 17 7L17.4313 7C19.559 7 20.6228 7 21.2204 7.68255C21.818 8.3651 21.6774 9.41962 21.3962 11.5287L20.9257 15.0573C20.4847 18.3652 20.2642 20.0191 19.1329 21.0095C18.0016 22 16.333 22 12.9959 22H11.0042C7.66705 22 5.99849 22 4.8672 21.0095C3.73591 20.0191 3.51538 18.3652 3.07434 15.0573L2.60385 11.5287C2.32265 9.41962 2.18204 8.3651 2.77963 7.68255C3.37721 7 4.44106 7 6.56876 7L7.00003 7ZM15 7C15 5.34315 13.6569 4 12 4C10.3432 4 9.00003 5.34315 9.00003 7L15 7ZM9.00003 11C9.55231 11 10 11.4477 10 12V14C10 14.5523 9.55231 15 9.00003 15C8.44775 15 8.00003 14.5523 8.00003 14V12C8.00003 11.4477 8.44775 11 9.00003 11ZM15 11C15.5523 11 16 11.4477 16 12V14C16 14.5523 15.5523 15 15 15C14.4477 15 14 14.5523 14 14V12C14 11.4477 14.4477 11 15 11Z"></path>
  </symbol>
  <symbol xmlns="http://www.w3.org/2000/svg" viewBox="0 0 24 24" id="box">
    <path fill-rule="evenodd" clip-rule="evenodd" d="M10.94 21.4083L3.94 17.0333C3.48048 16.7461 3.25072 16.6024 3.12536 16.3763C3 16.1501 3 15.8792 3 15.3373V8.55425C3 8.01235 3 7.74141 3.12536 7.51523C3.25072 7.28906 3.48048 7.14545 3.94 6.85825L6.71972 5.12092L15.0433 10.5067C15.2823 10.6614 15.4033 10.7409 15.4847 10.8052L15.4887 10.8084L15.4892 10.8135C15.499 10.9168 15.5 11.0616 15.5 11.3463V14.7583C15.5 15.3105 15.9477 15.7583 16.5 15.7583C17.0523 15.7583 17.5 15.3105 17.5 14.7583V11.3463L17.5 11.3128V11.3127C17.5 11.0758 17.5001 10.8344 17.4804 10.6256C17.4578 10.3859 17.4045 10.118 17.2568 9.84651C17.1091 9.57501 16.9131 9.38478 16.7242 9.23561C16.5595 9.10559 16.3569 8.9745 16.1579 8.84582L16.1298 8.8276L8.59241 3.95049L10.94 2.48325L10.94 2.48325C11.4555 2.16108 11.7132 2 12 2C12.2868 2 12.5445 2.16108 13.06 2.48325L20.06 6.85825C20.5195 7.14545 20.7493 7.28906 20.8746 7.51523C21 7.74141 21 8.01235 21 8.55425V15.3373C21 15.8792 21 16.1501 20.8746 16.3763C20.7493 16.6024 20.5195 16.7461 20.06 17.0333L16.5 19.2583L13.06 21.4083L13.06 21.4083C12.5445 21.7304 12.2868 21.8915 12 21.8915C11.7132 21.8915 11.4555 21.7304 10.94 21.4083L10.94 21.4083Z"></path>
  </symbol>
  <symbol xmlns="http://www.w3.org/2000/svg" viewBox="0 0 16 16" id="minus">
    <path d="M1 8C1 7.44772 1.44772 7 2 7H14C14.5523 7 15 7.44772 15 8C15 8.55228 14.5523 9 14 9H2C1.44772 9 1 8.55228 1 8Z"></path>
  </symbol>
  <symbol xmlns="http://www.w3.org/2000/svg" viewBox="0 0 16 16" id="plus">
    <path fill-rule="evenodd" clip-rule="evenodd" d="M7 14C7 14.5523 7.44772 15 8 15C8.55228 15 9 14.5523 9 14V9H14C14.5523 9 15 8.55228 15 8C15 7.44772 14.5523 7 14 7H9V2C9 1.44772 8.55228 1 8 1C7.44772 1 7 1.44772 7 2V7H2C1.44772 7 1 7.44772 1 8C1 8.55228 1.44772 9 2 9H7V14Z"></path>
  </symbol>
</svg>