<svg width="14" height="14" viewBox="0 0 14 14" fill="none" xmlns="http://www.w3.org/2000/svg">
<path fill-rule="evenodd" clip-rule="evenodd" d="M6.79254 0.52325C7.20576 0.429739 7.63093 0.624656 7.81872 0.993689L9.48727 4.27266L13.2189 4.80137C13.5628 4.85008 13.8483 5.08386 13.9555 5.40443C14.0626 5.725 13.9729 6.07679 13.724 6.31192L11.0241 8.86212L11.6614 12.4648C11.7202 12.797 11.5794 13.1328 11.2982 13.3309C11.017 13.529 10.6442 13.5551 10.3366 13.3982L7 11.6961L3.66345 13.3982C3.35584 13.5551 2.98304 13.529 2.70184 13.3309C2.42064 13.1328 2.27981 12.797 2.33859 12.4648L2.9759 8.86212L0.276028 6.31192C0.0271009 6.07679 -0.0626342 5.725 0.0445435 5.40443C0.151721 5.08386 0.43723 4.85008 0.781055 4.80137L4.51279 4.27265L6.16871 1.01928C6.28322 0.77508 6.50953 0.587296 6.79254 0.52325Z" fill="#F2994A"/>
</svg>
