<svg width="40" height="40" viewBox="0 0 40 40" fill="none" xmlns="http://www.w3.org/2000/svg">
<g clip-path="url(#clip0_2250_1119)">
<path fill-rule="evenodd" clip-rule="evenodd" d="M9.0413 19.7972C14.8714 17.2407 18.7685 15.5884 20.7326 14.7778C26.2821 12.4707 27.4357 12.0654 28.1839 12.0342C28.3398 12.0342 28.7139 12.0654 28.9634 12.2524C29.1504 12.4083 29.2128 12.6265 29.244 12.7824C29.2751 12.9383 29.3063 13.2813 29.2751 13.5618C28.9634 16.7107 27.6851 24.4114 26.9992 27.9344C26.7186 29.4309 26.1574 29.9297 25.6274 29.9921C24.4739 30.0856 23.5697 29.2127 22.4474 28.4956C20.7015 27.3421 19.7038 26.625 17.9891 25.5026C16.0249 24.1932 17.3032 23.4761 18.4256 22.3226C18.7061 22.0108 23.8503 17.3654 23.9439 16.929C23.9439 16.8666 23.975 16.6795 23.8503 16.586C23.7256 16.4925 23.5697 16.5237 23.445 16.5548C23.258 16.586 20.4521 18.4566 14.9961 22.1355C14.1855 22.6967 13.4684 22.9461 12.8137 22.9461C12.0966 22.9461 10.7249 22.5408 9.69602 22.1979C8.44894 21.7926 7.45128 21.5743 7.54481 20.8884C7.60716 20.5455 8.10599 20.1714 9.0413 19.7972Z" fill="#4E8616"/>
</g>
<defs>
<clipPath id="clip0_2250_1119">
<rect width="40" height="40" fill="white"/>
</clipPath>
</defs>
</svg>
