<svg width="40" height="40" viewBox="0 0 40 40" fill="none" xmlns="http://www.w3.org/2000/svg">
<path fill-rule="evenodd" clip-rule="evenodd" d="M26.4788 13.6521C25.3371 12.9081 24.5138 11.7169 24.2566 10.3291C24.1998 10.0242 24.171 9.71486 24.1705 9.40479H20.5274L20.5216 24.0045C20.4604 25.6395 19.1146 26.9517 17.4654 26.9517C16.9702 26.9519 16.4825 26.8312 16.0446 26.5999C15.0698 26.087 14.4027 25.0655 14.4027 23.8897C14.4027 22.2011 15.7768 20.8271 17.4648 20.8271C17.78 20.8271 18.0825 20.8792 18.3684 20.9685V17.2495C18.0723 17.2091 17.7715 17.1842 17.4648 17.1842C13.7677 17.1841 10.7598 20.1919 10.7598 23.8897C10.7598 26.1582 11.8929 28.1657 13.6225 29.3797C14.7116 30.1446 16.0366 30.5948 17.4654 30.5948C21.1626 30.5948 24.1705 27.587 24.1705 23.8897V16.4862C25.5992 17.5115 27.35 18.1158 29.239 18.1158V14.4728C28.2216 14.4728 27.274 14.1704 26.4788 13.6521Z" fill="#4E8616"/>
</svg>
