<svg width="40" height="40" viewBox="0 0 40 40" fill="none" xmlns="http://www.w3.org/2000/svg">
<g clip-path="url(#clip0_2250_1122)">
<path d="M21.2794 28.8135C12.1594 28.8135 6.95943 22.5735 6.74609 12.1735H11.3328C11.4794 19.8002 14.8394 23.0268 17.5061 23.6935V12.1735H21.8128V18.7468C24.4394 18.4668 27.2128 15.4668 28.1461 12.1602H32.4394C32.0894 13.8718 31.3901 15.493 30.3852 16.9222C29.3804 18.3514 28.0916 19.5581 26.5994 20.4668C28.2647 21.2957 29.7353 22.4681 30.9143 23.9068C32.0933 25.3455 32.9539 27.0179 33.4394 28.8135H28.7061C27.6928 25.6535 25.1594 23.2002 21.8128 22.8668V28.8135H21.2928H21.2794Z" fill="#4E8616"/>
</g>
<defs>
<clipPath id="clip0_2250_1122">
<rect width="40" height="40" fill="white"/>
</clipPath>
</defs>
</svg>
